<?xml version="1.0" encoding="utf-8"?>
<!-- Generator: Adobe Illustrator 26.0.0, SVG Export Plug-In . SVG Version: 6.00 Build 0)  -->
<svg version="1.1" id="Camada_1" xmlns="http://www.w3.org/2000/svg" xmlns:xlink="http://www.w3.org/1999/xlink" x="0px" y="0px"
	 viewBox="0 0 1200 768" style="enable-background:new 0 0 1200 768;" xml:space="preserve">
<style type="text/css">
	.st0{fill:url(#SVGID_1_);}
	.st1{opacity:0.2;}
	.st2{fill:#FFFFFF;}
	.st3{fill:url(#SVGID_00000059304434342740915160000006355862251260888463_);}
</style>
<linearGradient id="SVGID_1_" gradientUnits="userSpaceOnUse" x1="108" y1="876" x2="1092" y2="-108">
	<stop  offset="0" style="stop-color:#448632"/>
	<stop  offset="1" style="stop-color:#8FD457"/>
</linearGradient>
<rect class="st0" width="1200" height="768"/>
<g class="st1">
	<g>
		<path d="M470.4,197.4c40.6,0,70.9,7.1,98.4,23.2c11.9,7,17.4,4.6,24.8-6.2c35.5-52,82.9-90.1,141.8-112.2c19-7.1,40.4-9.1,60.9-11
			c16.7-1.5,20.7,4.2,22.3,21.3c3.2,33.7-4.4,65.8-16.9,96.4c-16.6,40.8-34.6,81.1-54.3,120.5c-16.9,33.7-47.7,53.9-81.8,66.1
			c-23.3,8.4-33.7,21.1-32.8,45.2c0.4,9.5-1.3,19.1-2.5,28.6c-0.9,7.1-3.9,14.4-12.3,11.9c-4.2-1.3-9.5-8.6-9.4-13
			c0.3-16.6,2.3-33.2,4.5-49.7c1.2-9.1-1.1-15.2-7.8-22c-12.7-12.8-27.7-20.3-44.1-27.2c-14.7-6.2-28.7-15-41.2-25
			c-26-20.8-51.3-42.6-75.9-65c-13.5-12.3-25.1-26.6-37.2-40.3c-6.9-7.8-5.3-14.8,2.8-21.3C430.2,201.3,454,197.1,470.4,197.4z
			 M625.2,382.1c3.8-13.5,8.4-25.6,10.4-38c1.4-8.4,1.7-18.5-1.7-26c-8.6-19.3-19.4-37.5-29.6-56.1c-1.4-2.6-4-4.6-6.3-7.1
			C567.6,302.2,577.4,350.4,625.2,382.1z M646.8,312.7c5.1-11.3,8.2-22.4,14.4-31.4c12-17.6,11.3-33.9,0.6-51.8
			c-7.1-11.8-11.6-25.2-19-41.6c-13.3,17.5-24.6,31.7-35.1,46.6c-1.8,2.6-1.4,8.5,0.3,11.5C620.1,267.7,632.9,289.1,646.8,312.7z
			 M657.1,315.8c29-7.4,53.8-13.7,78.6-20.3c2.5-0.7,5.5-2.8,6.6-5.1c7.4-15.1,14.4-30.4,22.5-47.8c-29,1.5-53.8,8.9-78.5,17.5
			c-1.4,0.5-2.9,1.9-3.6,3.3C674.5,280,666.4,296.6,657.1,315.8z M679.7,241.8c11.8-17.5,19.8-33.5,31.7-45.9
			c15.2-15.9,15.3-31.4,6.5-49.3c-0.2-0.4-0.3-0.8-0.4-1.2c-2.3-7.6-6.7-8.9-13-4.3c-14.8,10.7-29.8,21.1-44.2,32.4
			c-3,2.3-6.1,8.5-5,11.3C662.4,203.3,670.7,221.2,679.7,241.8z M694.7,240.5c0.8,1,1.7,2,2.5,3c14.8-3.3,29.6-9,44.6-9.4
			c22.9-0.7,33.4-11.7,39-32.8c5.9-22.1,7.2-21.3-15.2-21.9c-12.8-0.4-26.3-1-34.7,9.5C717.7,205.2,706.6,223.2,694.7,240.5z
			 M731.3,310.5c-2.3-0.7-3.6-1.6-4.5-1.3c-23.2,7.3-46.5,14.6-69.6,22.2c-2.2,0.7-5.1,2.5-5.7,4.4c-4.9,14.7-9.3,29.5-13.9,44.2
			C677.2,366.6,713.1,350.7,731.3,310.5z M485.8,293.7c-0.7,2-1.3,4-2,6c3.8,2.5,8.3,4.3,11.1,7.6c14.9,16.7,33.2,22.6,54.9,18.1
			c3.1-0.6,7.4-2.7,8.4-5.2c5.1-13-9.4-36.4-23.1-35.4C518.6,286.1,502.2,290.6,485.8,293.7z M531.9,262.6c0.7-2.2,1.5-3.4,1.4-4.4
			c-0.5-6.6-0.9-13.3-1.8-19.9c-3.4-24.1-9.8-29.2-34.3-29.3c-8.5,0-8.8,3.2-8.2,10.7C491.2,246.6,512.7,252.7,531.9,262.6z
			 M560.8,284.7c5-13.5,10.3-26.8,14.6-40.5c0.8-2.5-1.3-7.7-3.6-9.2c-8.6-5.3-17.9-9.5-27.2-14.4
			C538.3,245.6,546.5,277.4,560.8,284.7z M522.2,275.4c-19-24-52.7-26.6-71.8-7.2C471.1,299.9,496.5,274.4,522.2,275.4z
			 M780.2,115.3c-0.5-1.1-1-2.3-1.6-3.4c-15.2,5-30.6,9.5-45.6,15.2c-2.9,1.1-6.2,7.2-5.6,10.3c1.4,7.9,5,15.5,6.7,20.3
			C749.6,143.5,764.9,129.4,780.2,115.3z M747.8,167.2c14.8,0,25.2,0.4,35.6-0.3c3-0.2,7.9-3.2,8.4-5.6c2.4-12.3,3.7-24.8,5.3-37.2
			c-1-0.2-2.1-0.4-3.1-0.6C779.3,137.4,764.7,151.2,747.8,167.2z M478.7,235.6c1.2-0.9,2.4-1.7,3.6-2.6c-4.2-7.9-7.3-21.4-12.9-22.5
			c-15-3.1-30.4,1.5-45.5,11.7C443.8,227,461.2,231.3,478.7,235.6z M464.4,246.6c0.1-1.1,0.2-2.1,0.3-3.2
			c-11.6-2.7-23.2-5.7-34.9-7.7c-2.1-0.4-6.9,3.3-6.9,5c0.2,6.9,17.3,17,23.7,14.3C452.7,252.6,458.5,249.5,464.4,246.6z
			 M566.8,360.9c1.6-20.4-12-28.3-35-20.4C544.3,347.8,555,354.1,566.8,360.9z"/>
		<g>
			<path class="st2" d="M625.2,382.1c-47.8-31.7-57.6-79.9-27.2-127.3c2.3,2.5,4.9,4.5,6.3,7.1c10.2,18.6,21,36.8,29.6,56.1
				c3.4,7.5,3.1,17.6,1.7,26C633.6,356.6,629.1,368.6,625.2,382.1z M661.1,281.3c12-17.6,11.3-33.9,0.6-51.8
				c-7.1-11.8-11.6-25.2-19-41.6c-13.3,17.5-24.6,31.7-35.1,46.6c-1.8,2.6-1.4,8.5,0.3,11.5c12.2,21.7,25,43.1,38.8,66.7
				C651.8,301.3,655,290.3,661.1,281.3z M735.6,295.5c2.5-0.7,5.5-2.8,6.6-5.1c7.4-15.1,14.4-30.4,22.5-47.8
				c-29,1.5-53.8,8.9-78.5,17.5c-1.4,0.5-2.9,1.9-3.6,3.3c-8.2,16.5-16.3,33.1-25.7,52.3C686.1,308.4,710.9,302.1,735.6,295.5z
				 M711.4,195.9c15.2-15.9,15.3-31.4,6.5-49.3c-0.2-0.4-0.3-0.8-0.4-1.2c-2.3-7.6-6.7-8.9-13-4.3c-14.8,10.7-29.8,21.1-44.2,32.4
				c-3,2.3-6.1,8.5-5,11.3c7.1,18.4,15.4,36.3,24.5,57C691.5,224.3,699.5,208.3,711.4,195.9z M697.2,243.5c14.8-3.3,29.6-9,44.6-9.4
				c22.9-0.7,33.4-11.7,39-32.8c5.9-22.1,7.2-21.3-15.2-21.9c-12.8-0.4-26.3-1-34.7,9.5c-13.1,16.4-24.1,34.4-36.1,51.7
				C695.6,241.5,696.4,242.5,697.2,243.5z M726.8,309.1c-23.2,7.3-46.5,14.6-69.6,22.2c-2.2,0.7-5.1,2.5-5.7,4.4
				c-4.9,14.7-9.3,29.5-13.9,44.2c39.7-13.3,75.6-29.3,93.7-69.5C729,309.8,727.7,308.8,726.8,309.1z M483.8,299.7
				c3.8,2.5,8.3,4.3,11.1,7.6c14.9,16.7,33.2,22.6,54.9,18.1c3.1-0.6,7.4-2.7,8.4-5.2c5.1-13-9.4-36.4-23.1-35.4
				c-16.6,1.2-32.9,5.7-49.4,8.8C485.1,295.7,484.4,297.7,483.8,299.7z M533.3,258.2c-0.5-6.6-0.9-13.3-1.8-19.9
				c-3.4-24.1-9.8-29.2-34.3-29.3c-8.5,0-8.8,3.2-8.2,10.7c2.2,26.9,23.7,33.1,42.9,42.9C532.6,260.4,533.3,259.3,533.3,258.2z
				 M575.4,244.2c0.8-2.5-1.3-7.7-3.6-9.2c-8.6-5.3-17.9-9.5-27.2-14.4c-6.3,24.9,1.9,56.7,16.2,64
				C565.8,271.2,571.1,257.9,575.4,244.2z M450.4,268.1c20.7,31.7,46.1,6.3,71.8,7.2C503.2,251.4,469.5,248.8,450.4,268.1z
				 M778.7,111.9c-15.2,5-30.6,9.5-45.6,15.2c-2.9,1.1-6.2,7.2-5.6,10.3c1.4,7.9,5,15.5,6.7,20.3c15.5-14.2,30.8-28.4,46.1-42.5
				C779.7,114.2,779.2,113.1,778.7,111.9z M783.4,167c3-0.2,7.9-3.2,8.4-5.6c2.4-12.3,3.7-24.8,5.3-37.2c-1-0.2-2.1-0.4-3.1-0.6
				c-14.6,13.9-29.2,27.7-46.1,43.8C762.6,167.2,773,167.7,783.4,167z M482.3,233c-4.2-7.9-7.3-21.4-12.9-22.5
				c-15-3.1-30.4,1.5-45.5,11.7c19.9,4.9,37.3,9.2,54.8,13.5C479.9,234.8,481.1,233.9,482.3,233z M464.7,243.5
				c-11.6-2.7-23.2-5.7-34.9-7.7c-2.1-0.4-6.9,3.3-6.9,5c0.2,6.9,17.3,17,23.7,14.3c6-2.5,11.8-5.6,17.8-8.4
				C464.5,245.6,464.6,244.5,464.7,243.5z M531.8,340.5c12.5,7.3,23.2,13.5,35,20.4C568.4,340.5,554.8,332.7,531.8,340.5z"/>
			<g>
				
					<linearGradient id="SVGID_00000111168204304015419970000001455221715841535617_" gradientUnits="userSpaceOnUse" x1="422.9388" y1="247.0358" x2="797.0511" y2="247.0358">
					<stop  offset="0" style="stop-color:#33752A"/>
					<stop  offset="1" style="stop-color:#8FD457"/>
				</linearGradient>
				<path style="fill:url(#SVGID_00000111168204304015419970000001455221715841535617_);" d="M625.2,382.1
					c-47.8-31.7-57.6-79.9-27.2-127.3c2.3,2.5,4.9,4.5,6.3,7.1c10.2,18.6,21,36.8,29.6,56.1c3.4,7.5,3.1,17.6,1.7,26
					C633.6,356.6,629.1,368.6,625.2,382.1z M661.1,281.3c12-17.6,11.3-33.9,0.6-51.8c-7.1-11.8-11.6-25.2-19-41.6
					c-13.3,17.5-24.6,31.7-35.1,46.6c-1.8,2.6-1.4,8.5,0.3,11.5c12.2,21.7,25,43.1,38.8,66.7C651.8,301.3,655,290.3,661.1,281.3z
					 M735.6,295.5c2.5-0.7,5.5-2.8,6.6-5.1c7.4-15.1,14.4-30.4,22.5-47.8c-29,1.5-53.8,8.9-78.5,17.5c-1.4,0.5-2.9,1.9-3.6,3.3
					c-8.2,16.5-16.3,33.1-25.7,52.3C686.1,308.4,710.9,302.1,735.6,295.5z M711.4,195.9c15.2-15.9,15.3-31.4,6.5-49.3
					c-0.2-0.4-0.3-0.8-0.4-1.2c-2.3-7.6-6.7-8.9-13-4.3c-14.8,10.7-29.8,21.1-44.2,32.4c-3,2.3-6.1,8.5-5,11.3
					c7.1,18.4,15.4,36.3,24.5,57C691.5,224.3,699.5,208.3,711.4,195.9z M697.2,243.5c14.8-3.3,29.6-9,44.6-9.4
					c22.9-0.7,33.4-11.7,39-32.8c5.9-22.1,7.2-21.3-15.2-21.9c-12.8-0.4-26.3-1-34.7,9.5c-13.1,16.4-24.1,34.4-36.1,51.7
					C695.6,241.5,696.4,242.5,697.2,243.5z M726.8,309.1c-23.2,7.3-46.5,14.6-69.6,22.2c-2.2,0.7-5.1,2.5-5.7,4.4
					c-4.9,14.7-9.3,29.5-13.9,44.2c39.7-13.3,75.6-29.3,93.7-69.5C729,309.8,727.7,308.8,726.8,309.1z M483.8,299.7
					c3.8,2.5,8.3,4.3,11.1,7.6c14.9,16.7,33.2,22.6,54.9,18.1c3.1-0.6,7.4-2.7,8.4-5.2c5.1-13-9.4-36.4-23.1-35.4
					c-16.6,1.2-32.9,5.7-49.4,8.8C485.1,295.7,484.4,297.7,483.8,299.7z M533.3,258.2c-0.5-6.6-0.9-13.3-1.8-19.9
					c-3.4-24.1-9.8-29.2-34.3-29.3c-8.5,0-8.8,3.2-8.2,10.7c2.2,26.9,23.7,33.1,42.9,42.9C532.6,260.4,533.3,259.3,533.3,258.2z
					 M575.4,244.2c0.8-2.5-1.3-7.7-3.6-9.2c-8.6-5.3-17.9-9.5-27.2-14.4c-6.3,24.9,1.9,56.7,16.2,64
					C565.8,271.2,571.1,257.9,575.4,244.2z M450.4,268.1c20.7,31.7,46.1,6.3,71.8,7.2C503.2,251.4,469.5,248.8,450.4,268.1z
					 M778.7,111.9c-15.2,5-30.6,9.5-45.6,15.2c-2.9,1.1-6.2,7.2-5.6,10.3c1.4,7.9,5,15.5,6.7,20.3c15.5-14.2,30.8-28.4,46.1-42.5
					C779.7,114.2,779.2,113.1,778.7,111.9z M783.4,167c3-0.2,7.9-3.2,8.4-5.6c2.4-12.3,3.7-24.8,5.3-37.2c-1-0.2-2.1-0.4-3.1-0.6
					c-14.6,13.9-29.2,27.7-46.1,43.8C762.6,167.2,773,167.7,783.4,167z M482.3,233c-4.2-7.9-7.3-21.4-12.9-22.5
					c-15-3.1-30.4,1.5-45.5,11.7c19.9,4.9,37.3,9.2,54.8,13.5C479.9,234.8,481.1,233.9,482.3,233z M464.7,243.5
					c-11.6-2.7-23.2-5.7-34.9-7.7c-2.1-0.4-6.9,3.3-6.9,5c0.2,6.9,17.3,17,23.7,14.3c6-2.5,11.8-5.6,17.8-8.4
					C464.5,245.6,464.6,244.5,464.7,243.5z M531.8,340.5c12.5,7.3,23.2,13.5,35,20.4C568.4,340.5,554.8,332.7,531.8,340.5z"/>
			</g>
		</g>
	</g>
	<g>
		<path class="st2" d="M374.2,633.1c0,10.4,2.1,17.1,6.3,20c4.2,2.9,13.3,4.4,27.2,4.4c20.7,0,36.8-5.7,48.5-17.1
			c11.7-11.4,18.5-28.3,20.5-50.5H493l-4.7,82.4H296.6v-14.8c10.5-0.9,17.3-2.9,20.4-5.8c3.1-2.9,4.6-9.1,4.6-18.6V499.4
			c0-9.5-1.5-15.7-4.6-18.6c-3.1-2.9-9.9-4.9-20.4-5.8v-14.8H399v14.8c-10.3,0.9-17,2.7-20.1,5.6c-3.1,2.9-4.6,9.2-4.6,18.8V633.1z"
			/>
		<path class="st2" d="M649.1,594h-91.7c-0.1,1.3-0.2,2.8-0.2,4.3c0,1.6-0.1,3.8-0.1,6.8c0,19.1,2.7,33.2,8,42.3
			s13.6,13.6,24.9,13.6c8.7,0,16.9-2.9,24.4-8.7c7.6-5.8,14.1-14.1,19.6-24.9l13.6,4.8c-6,15-14.6,26.2-26,33.7
			c-11.4,7.5-25.4,11.2-42.1,11.2c-9.8,0-18.9-1.7-27.4-5.1c-8.5-3.4-16.1-8.3-22.7-14.6c-7.8-7.6-13.7-16.5-17.8-26.8
			c-4.1-10.3-6.1-21.5-6.1-33.8c0-23.9,6.9-43.3,20.7-58.3c13.8-15,31.6-22.5,53.4-22.5c20.8,0,37.6,6.9,50.4,20.7
			c12.7,13.8,19.1,32.3,19.1,55.3V594z M557.1,580.6h43.9v-2.7c0-17.5-1.7-30-5-37.4c-3.4-7.4-9-11.2-16.8-11.2
			c-7.7,0-13.1,3.7-16.4,11C559.5,547.7,557.6,561.1,557.1,580.6z"/>
		<path class="st2" d="M759.5,652.6c-8.6,8.1-17.3,14.1-25.9,18.3c-8.7,4.1-17.3,6.2-25.9,6.2c-11.8,0-21.6-3.6-29.3-10.9
			c-7.7-7.3-11.5-16.6-11.5-27.9c0-15.9,7.4-28.3,22.1-37.2c14.7-8.9,37.3-14.5,67.6-16.9v-20.9c0-13.2-2-22.2-6.1-27.1
			c-4.1-4.9-11.1-7.3-21.2-7.3c-4.5,0-8.3,0.7-11.7,2.1c-3.3,1.4-5,2.8-5,4.3c0,0.2,0.3,0.8,0.9,1.7c0.3,0.5,0.5,0.8,0.6,1l4.1,6.4
			c0.9,1.3,1.5,3,2.1,4.9c0.5,1.9,0.8,3.9,0.8,5.9c0,5.7-2.1,10.4-6.4,14.1c-4.3,3.7-9.8,5.6-16.6,5.6c-7,0-12.7-2-17.1-6
			c-4.4-4-6.5-9.2-6.5-15.6c0-10.8,5.7-19.7,17.2-26.7c11.5-7,26.3-10.5,44.6-10.5c22.2,0,38.5,4.6,49,13.9
			c10.5,9.3,15.8,23.8,15.8,43.5v73.3c0,2.7,0.5,4.6,1.4,5.9c0.9,1.3,2.4,1.9,4.4,1.9c1.3,0,3.2-0.5,5.6-1.6c2.4-1,4-1.6,4.9-1.6
			c1.1,0,2.2,0.5,3.1,1.5c0.9,1,1.4,2.1,1.4,3.3c0,4.2-3.5,8.4-10.5,12.8c-7,4.4-14.5,6.5-22.5,6.5c-7.3,0-13.3-1.8-18-5.5
			C766,666.3,762.3,660.5,759.5,652.6z M756.5,596.4c-15.1,2.2-26.3,6.1-33.7,11.9c-7.4,5.7-11.1,13.3-11.1,22.7
			c0,6.4,1.8,11.5,5.4,15.2c3.6,3.7,8.6,5.5,14.9,5.5c8.5,0,14.8-3.3,18.9-10c4.1-6.7,6.1-17,6.1-31.1c0-1.6,0-3.4-0.1-5.3
			C757,603.5,756.8,600.5,756.5,596.4z"/>
		<path class="st2" d="M893.8,638.5c0,7.6,1.2,12.9,3.6,15.9c2.4,3,6.3,4.5,11.9,4.5h9v13.4h-84.7V659c6.1-0.9,10.1-2.7,12.2-5.3
			c2-2.6,3.1-7.6,3.1-15.2v-92.2h-17.5v-13.9h17.5c0-0.8,0-1.9-0.1-3.5c-0.1-1.6-0.1-2.7-0.1-3.5c0-24.7,5.7-43.7,17-57
			c11.3-13.3,27.5-19.9,48.5-19.9c12.9,0,23.3,3.1,31.2,9.2c7.9,6.1,11.9,14,11.9,23.8c0,6.4-2,11.5-6,15.3c-4,3.7-9.5,5.6-16.4,5.6
			c-6,0-10.6-1.6-13.9-4.7c-3.3-3.1-5-7.6-5-13.4c0-2.1,0.3-4,0.9-5.8c0.6-1.8,1.4-3.3,2.5-4.5l3.3-3.8c0.5-0.7,0.8-1.3,1.1-1.9
			c0.2-0.6,0.4-1.3,0.4-1.9c0-1.3-0.9-2.5-2.7-3.6c-1.8-1.1-3.9-1.6-6.3-1.6c-7.3,0-12.6,3.2-16,9.6c-3.4,6.4-5,16.7-5,30.9v30.8
			h35.8v13.9h-35.8V638.5z"/>
	</g>
</g>
</svg>
