<svg xmlns="http://www.w3.org/2000/svg" xmlns:xlink="http://www.w3.org/1999/xlink" viewBox="0 0 219 194.33"><defs><style>.cls-1{opacity:0.2;}.cls-2{fill:#fff;}.cls-3{fill:url(#Gradiente_sem_nome_17);}</style><linearGradient id="Gradiente_sem_nome_17" x1="41.88" y1="51.74" x2="165.94" y2="51.74" gradientUnits="userSpaceOnUse"><stop offset="0" stop-color="#33752a"/><stop offset="1" stop-color="#8fd457"/></linearGradient></defs><g id="Camada_2" data-name="Camada 2"><g id="Camada_1-2" data-name="Camada 1"><g class="cls-1"><path d="M57.63,35.28c13.46,0,23.52,2.34,32.62,7.7,3.94,2.32,5.77,1.52,8.21-2.06a97.66,97.66,0,0,1,47-37.21c6.31-2.37,13.39-3,20.2-3.63,5.52-.5,6.86,1.39,7.39,7.06,1.06,11.17-1.46,21.83-5.59,32C162,52.63,156,66,149.5,79.07c-5.59,11.19-15.8,17.87-27.13,21.94-7.74,2.77-11.17,7-10.87,15a59.72,59.72,0,0,1-.82,9.49c-.29,2.36-1.3,4.79-4.07,3.93a5.63,5.63,0,0,1-3.11-4.32A145,145,0,0,1,105,108.6c.41-3-.37-5.06-2.59-7.3-4.21-4.25-9.19-6.74-14.62-9A58.94,58.94,0,0,1,74.12,84c-8.62-6.9-17-14.12-25.17-21.57C44.49,58.34,40.64,53.58,36.62,49c-2.28-2.59-1.76-4.91.92-7A31.72,31.72,0,0,1,57.63,35.28ZM109,96.55c1.27-4.49,2.77-8.49,3.45-12.62.46-2.8.55-6.14-.56-8.63C109,68.92,105.4,62.86,102,56.71a14.53,14.53,0,0,0-2.1-2.37C89.84,70.05,93.11,86,109,96.55Zm7.14-23c1.68-3.76,2.74-7.41,4.77-10.4,4-5.85,3.74-11.25.2-17.18-2.35-3.93-3.86-8.35-6.3-13.78-4.42,5.79-8.17,10.52-11.64,15.44a4.39,4.39,0,0,0,.1,3.82C107.27,58.6,111.52,65.69,116.1,73.5Zm3.42,1c9.62-2.46,17.85-4.54,26.05-6.72a3.79,3.79,0,0,0,2.2-1.68c2.46-5,4.78-10.09,7.47-15.86-9.6.51-17.86,3-26,5.81a2.42,2.42,0,0,0-1.2,1.1C125.3,62.68,122.63,68.18,119.52,74.55ZM127,50c3.92-5.8,6.58-11.12,10.5-15.22,5-5.27,5.07-10.42,2.16-16.34a2.55,2.55,0,0,1-.13-.39c-.76-2.52-2.22-3-4.32-1.43-4.91,3.55-9.89,7-14.67,10.73-1,.77-2,2.83-1.65,3.76C121.28,37.23,124,43.18,127,50Zm5-.44.83,1c4.92-1.11,9.82-3,14.78-3.14,7.6-.24,11.06-3.86,12.92-10.87,2-7.32,2.4-7.06-5-7.27-4.25-.13-8.73-.35-11.52,3.14C139.62,37.87,136,43.84,132,49.58Zm12.12,23.2c-.75-.24-1.18-.54-1.49-.45Q131.09,76,119.56,79.69a3.21,3.21,0,0,0-1.9,1.47c-1.62,4.86-3.09,9.77-4.6,14.67C126.21,91.4,138.11,86.11,144.13,72.78ZM62.71,67.21l-.66,2c1.25.83,2.74,1.43,3.7,2.51,4.94,5.55,11,7.51,18.21,6,1-.21,2.45-.88,2.78-1.71,1.69-4.29-3.11-12.06-7.65-11.72C73.59,64.69,68.17,66.19,62.71,67.21ZM78,56.91a5.65,5.65,0,0,0,.47-1.47c-.16-2.2-.3-4.41-.61-6.6-1.11-8-3.23-9.69-11.37-9.73-2.83,0-2.9,1.08-2.7,3.56C64.51,51.6,71.63,53.63,78,56.91Zm9.59,7.32c1.66-4.48,3.41-8.9,4.85-13.42a3.43,3.43,0,0,0-1.2-3c-2.85-1.76-5.92-3.17-9-4.77C80.12,51.28,82.86,61.82,87.59,64.23ZM74.81,61.14c-6.3-8-17.48-8.81-23.81-2.41C57.85,69.26,66.29,60.82,74.81,61.14ZM160.37,8.06l-.52-1.12c-5.06,1.64-10.17,3.15-15.12,5a4,4,0,0,0-1.86,3.42,42.39,42.39,0,0,0,2.21,6.75ZM149.61,25.28c4.92,0,8.37.15,11.79-.09,1-.06,2.62-1.06,2.78-1.86.8-4.08,1.21-8.23,1.76-12.35l-1-.21ZM60.36,48l1.2-.86c-1.4-2.61-2.41-7.09-4.27-7.47-5-1-10.07.49-15.1,3.86Zm-4.73,3.65.11-1c-3.85-.89-7.69-1.89-11.58-2.57-.68-.12-2.29,1.09-2.28,1.66.06,2.3,5.73,5.65,7.86,4.76S53.67,52.55,55.63,51.61Zm33.94,37.9c.54-6.78-4-9.37-11.6-6.76Z"/><path class="cls-2" d="M109,96.55c-15.85-10.53-19.12-26.5-9-42.21a14.53,14.53,0,0,1,2.1,2.37c3.36,6.15,7,12.21,9.81,18.59,1.11,2.49,1,5.83.56,8.63C111.73,88.06,110.23,92.06,109,96.55ZM120.87,63.1c4-5.85,3.74-11.25.2-17.18-2.35-3.93-3.86-8.35-6.3-13.78-4.42,5.79-8.17,10.52-11.64,15.44a4.39,4.39,0,0,0,.1,3.82c4,7.2,8.29,14.29,12.87,22.1C117.78,69.74,118.84,66.09,120.87,63.1Zm24.7,4.73a3.79,3.79,0,0,0,2.2-1.68c2.46-5,4.78-10.09,7.47-15.86-9.6.51-17.86,3-26,5.81a2.42,2.42,0,0,0-1.2,1.1c-2.72,5.48-5.39,11-8.5,17.35C129.14,72.09,137.37,70,145.57,67.83Zm-8-33c5-5.27,5.07-10.42,2.16-16.34a2.55,2.55,0,0,1-.13-.39c-.76-2.52-2.22-3-4.32-1.43-4.91,3.55-9.89,7-14.67,10.73-1,.77-2,2.83-1.65,3.76C121.28,37.23,124,43.18,127,50,130.94,44.22,133.6,38.9,137.52,34.8Zm-4.68,15.79c4.92-1.11,9.82-3,14.78-3.14,7.6-.24,11.06-3.86,12.92-10.87,2-7.32,2.4-7.06-5-7.27-4.25-.13-8.73-.35-11.52,3.14-4.35,5.42-8,11.39-12,17.13Zm9.8,21.74Q131.09,76,119.56,79.69a3.21,3.21,0,0,0-1.9,1.47c-1.62,4.86-3.09,9.77-4.6,14.67,13.15-4.43,25.05-9.72,31.07-23C143.38,72.54,143,72.24,142.64,72.33ZM62.05,69.2c1.25.83,2.74,1.43,3.7,2.51,4.94,5.55,11,7.51,18.21,6,1-.21,2.45-.88,2.78-1.71,1.69-4.29-3.11-12.06-7.65-11.72-5.5.4-10.92,1.9-16.38,2.92ZM78.47,55.44c-.16-2.2-.3-4.41-.61-6.6-1.11-8-3.23-9.69-11.37-9.73-2.83,0-2.9,1.08-2.7,3.56.72,8.93,7.84,11,14.21,14.24A5.65,5.65,0,0,0,78.47,55.44Zm14-4.63a3.43,3.43,0,0,0-1.2-3c-2.85-1.76-5.92-3.17-9-4.77-2.1,8.27.64,18.81,5.37,21.22C89.25,59.75,91,55.33,92.44,50.81ZM51,58.73c6.85,10.53,15.29,2.09,23.81,2.41C68.51,53.18,57.33,52.33,51,58.73ZM159.85,6.94c-5.06,1.64-10.17,3.15-15.12,5a4,4,0,0,0-1.86,3.42,42.39,42.39,0,0,0,2.21,6.75L160.37,8.06Zm1.55,18.25c1-.06,2.62-1.06,2.78-1.86.8-4.08,1.21-8.23,1.76-12.35l-1-.21L149.61,25.28C154.53,25.28,158,25.43,161.4,25.19ZM61.56,47.1c-1.4-2.61-2.41-7.09-4.27-7.47-5-1-10.07.49-15.1,3.86L60.36,48Zm-5.82,3.46c-3.85-.89-7.69-1.89-11.58-2.57-.68-.12-2.29,1.09-2.28,1.66.06,2.3,5.73,5.65,7.86,4.76s3.93-1.86,5.89-2.8ZM78,82.75l11.6,6.76C90.11,82.73,85.61,80.14,78,82.75Z"/><path class="cls-3" d="M109,96.55c-15.85-10.53-19.12-26.5-9-42.21a14.53,14.53,0,0,1,2.1,2.37c3.36,6.15,7,12.21,9.81,18.59,1.11,2.49,1,5.83.56,8.63C111.73,88.06,110.23,92.06,109,96.55ZM120.87,63.1c4-5.85,3.74-11.25.2-17.18-2.35-3.93-3.86-8.35-6.3-13.78-4.42,5.79-8.17,10.52-11.64,15.44a4.39,4.39,0,0,0,.1,3.82c4,7.2,8.29,14.29,12.87,22.1C117.78,69.74,118.84,66.09,120.87,63.1Zm24.7,4.73a3.79,3.79,0,0,0,2.2-1.68c2.46-5,4.78-10.09,7.47-15.86-9.6.51-17.86,3-26,5.81a2.42,2.42,0,0,0-1.2,1.1c-2.72,5.48-5.39,11-8.5,17.35C129.14,72.09,137.37,70,145.57,67.83Zm-8-33c5-5.27,5.07-10.42,2.16-16.34a2.55,2.55,0,0,1-.13-.39c-.76-2.52-2.22-3-4.32-1.43-4.91,3.55-9.89,7-14.67,10.73-1,.77-2,2.83-1.65,3.76C121.28,37.23,124,43.18,127,50,130.94,44.22,133.6,38.9,137.52,34.8Zm-4.68,15.79c4.92-1.11,9.82-3,14.78-3.14,7.6-.24,11.06-3.86,12.92-10.87,2-7.32,2.4-7.06-5-7.27-4.25-.13-8.73-.35-11.52,3.14-4.35,5.42-8,11.39-12,17.13Zm9.8,21.74Q131.09,76,119.56,79.69a3.21,3.21,0,0,0-1.9,1.47c-1.62,4.86-3.09,9.77-4.6,14.67,13.15-4.43,25.05-9.72,31.07-23C143.38,72.54,143,72.24,142.64,72.33ZM62.05,69.2c1.25.83,2.74,1.43,3.7,2.51,4.94,5.55,11,7.51,18.21,6,1-.21,2.45-.88,2.78-1.71,1.69-4.29-3.11-12.06-7.65-11.72-5.5.4-10.92,1.9-16.38,2.92ZM78.47,55.44c-.16-2.2-.3-4.41-.61-6.6-1.11-8-3.23-9.69-11.37-9.73-2.83,0-2.9,1.08-2.7,3.56.72,8.93,7.84,11,14.21,14.24A5.65,5.65,0,0,0,78.47,55.44Zm14-4.63a3.43,3.43,0,0,0-1.2-3c-2.85-1.76-5.92-3.17-9-4.77-2.1,8.27.64,18.81,5.37,21.22C89.25,59.75,91,55.33,92.44,50.81ZM51,58.73c6.85,10.53,15.29,2.09,23.81,2.41C68.51,53.18,57.33,52.33,51,58.73ZM159.85,6.94c-5.06,1.64-10.17,3.15-15.12,5a4,4,0,0,0-1.86,3.42,42.39,42.39,0,0,0,2.21,6.75L160.37,8.06Zm1.55,18.25c1-.06,2.62-1.06,2.78-1.86.8-4.08,1.21-8.23,1.76-12.35l-1-.21L149.61,25.28C154.53,25.28,158,25.43,161.4,25.19ZM61.56,47.1c-1.4-2.61-2.41-7.09-4.27-7.47-5-1-10.07.49-15.1,3.86L60.36,48Zm-5.82,3.46c-3.85-.89-7.69-1.89-11.58-2.57-.68-.12-2.29,1.09-2.28,1.66.06,2.3,5.73,5.65,7.86,4.76s3.93-1.86,5.89-2.8ZM78,82.75l11.6,6.76C90.11,82.73,85.61,80.14,78,82.75Z"/><path class="cls-2" d="M25.73,179.76c0,3.46.7,5.67,2.1,6.65s4.41,1.46,9,1.46q10.27,0,16.07-5.68t6.79-16.75h5.42l-1.56,27.33H0v-4.9q5.24-.48,6.76-1.93c1-1,1.53-3,1.53-6.18V135.42c0-3.15-.51-5.2-1.53-6.18S3.49,127.62,0,127.31v-4.9H33.93v4.9c-3.42.28-5.65.9-6.67,1.86s-1.53,3-1.53,6.25Z"/><path class="cls-2" d="M116.87,166.8H86.48c0,.44-.06.92-.07,1.44s0,1.27,0,2.24q0,9.53,2.64,14a8.89,8.89,0,0,0,8.25,4.5,13.09,13.09,0,0,0,8.11-2.9,23.81,23.81,0,0,0,6.5-8.27l4.52,1.6a23.09,23.09,0,0,1-8.62,11.17,24.85,24.85,0,0,1-14,3.73,24.3,24.3,0,0,1-9.1-1.7,23.35,23.35,0,0,1-7.54-4.86,25.28,25.28,0,0,1-5.89-8.88,30.13,30.13,0,0,1-2-11.19q0-11.88,6.85-19.32t17.7-7.45q10.36,0,16.71,6.88t6.33,18.33Zm-30.49-4.43H101v-.89q0-8.72-1.68-12.42a5.72,5.72,0,0,0-5.58-3.7A5.57,5.57,0,0,0,88.25,149Q86.62,152.67,86.38,162.37Z"/><path class="cls-2" d="M153.49,186.22a34.14,34.14,0,0,1-8.6,6.05,19.83,19.83,0,0,1-8.6,2.06,13.53,13.53,0,0,1-9.71-3.63,12.21,12.21,0,0,1-3.81-9.24q0-7.92,7.32-12.35t22.41-5.61v-6.92q0-6.56-2-9t-7-2.43a10,10,0,0,0-3.86.69c-1.1.45-1.65.93-1.65,1.43a2.29,2.29,0,0,0,.28.57c.1.16.16.27.19.33l1.37,2.12a5.77,5.77,0,0,1,.68,1.62,7.7,7.7,0,0,1,.26,2,6,6,0,0,1-2.12,4.69,9.09,9.09,0,0,1-11.17-.12,6.71,6.71,0,0,1-2.17-5.18q0-5.37,5.71-8.86t14.79-3.49q11,0,16.26,4.62T167.25,160v24.32a3.22,3.22,0,0,0,.48,2,1.68,1.68,0,0,0,1.46.64,5.07,5.07,0,0,0,1.86-.52,5.48,5.48,0,0,1,1.62-.52,1.36,1.36,0,0,1,1,.5,1.64,1.64,0,0,1,.44,1.1c0,1.39-1.16,2.8-3.48,4.25a13.92,13.92,0,0,1-7.45,2.16,9.45,9.45,0,0,1-6-1.83A12.11,12.11,0,0,1,153.49,186.22Zm-1-18.62q-7.49,1.1-11.17,3.94a9.05,9.05,0,0,0-3.67,7.52,6.9,6.9,0,0,0,1.79,5,6.6,6.6,0,0,0,5,1.84,6.83,6.83,0,0,0,6.27-3.33q2-3.31,2-10.29c0-.54,0-1.12,0-1.75S152.6,169,152.5,167.6Z"/><path class="cls-2" d="M198,181.55q0,3.78,1.18,5.28a4.69,4.69,0,0,0,3.95,1.51h3v4.43H178.05v-4.43c2-.31,3.35-.9,4-1.74s1-2.53,1-5V151h-5.8v-4.62h5.8c0-.25,0-.64-.05-1.16s0-.9,0-1.15q0-12.3,5.64-18.9t16.09-6.59q6.41,0,10.34,3a9.52,9.52,0,0,1,3.94,7.9,6.58,6.58,0,0,1-2,5.06,7.66,7.66,0,0,1-5.45,1.87,6.46,6.46,0,0,1-4.62-1.56,5.83,5.83,0,0,1-1.64-4.43,6.05,6.05,0,0,1,.3-1.93,4.65,4.65,0,0,1,.83-1.51l1.08-1.27a2.4,2.4,0,0,0,.35-.64,1.68,1.68,0,0,0,.12-.63c0-.44-.3-.84-.89-1.21a4,4,0,0,0-2.08-.54,5.59,5.59,0,0,0-5.3,3.18Q198,129,198,136.12v10.23H209.9V151H198Z"/></g></g></g></svg>