<svg id="Camada_1" data-name="Camada 1" xmlns="http://www.w3.org/2000/svg" viewBox="0 0 300 300"><defs><style>.cls-1{fill:#fff;}</style></defs><path class="cls-1" d="M248.9,43.9V15.61H240V43.9H60V15.61H51.1V43.9H5V284.39H295V43.9Zm39.41,233.8H11.69V107.75H288.31Zm0-176.63H11.69V50.59H51.1V67.87H60V50.59H240V67.87h8.94V50.59h39.41Z"/><path class="cls-1" d="M99.71,183.3H43.51V131.23h56.2Zm-49.52-6.68H93v-38.7H50.19Z"/><path class="cls-1" d="M178.1,183.3H121.9V131.23h56.2Zm-49.51-6.68h42.82v-38.7H128.59Z"/><path class="cls-1" d="M256.49,183.3h-56.2V131.23h56.2ZM207,176.62h42.83v-38.7H207Z"/><path class="cls-1" d="M99.71,252.76H43.51V200.69h56.2Zm-49.52-6.69H93v-38.7H50.19Z"/><path class="cls-1" d="M178.1,252.76H121.9V200.69h56.2Zm-49.51-6.69h42.82v-38.7H128.59Z"/><path class="cls-1" d="M256.49,252.76h-56.2V200.69h56.2ZM207,246.07h42.83v-38.7H207Z"/><polygon class="cls-1" points="239.41 220.43 234.68 215.71 228.39 221.99 222.1 215.71 217.38 220.43 223.67 226.72 217.38 233.01 222.1 237.74 228.39 231.45 234.68 237.74 239.41 233.01 233.12 226.72 239.41 220.43"/></svg>