<?xml version="1.0" encoding="utf-8"?>
<!-- Generator: Adobe Illustrator 26.0.0, SVG Export Plug-In . SVG Version: 6.00 Build 0)  -->
<svg version="1.1" id="Camada_1" xmlns="http://www.w3.org/2000/svg" xmlns:xlink="http://www.w3.org/1999/xlink" x="0px" y="0px"
	 viewBox="0 0 300 300" style="enable-background:new 0 0 300 300;" xml:space="preserve">
<style type="text/css">
	.st0{fill:#FFFFFF;stroke:#FFFFFF;stroke-width:4.252;stroke-miterlimit:10;}
</style>
<g>
	<path class="st0" d="M48.7,155.3c0-1.6,0-2.8,0-4c0-14.7,0-29.3,0-44c0-5,1.3-6.3,6.3-6.3c16.8,0,33.7,0,50.5,0
		c4.8,0,6.1,1.4,6.1,6.2c0,10.6,0,21.3,0,31.9c0,1.1,0,2.1,0,3.4c3.6,0,6.9,0,10.6,0c0-1.4,0-2.6,0-3.9c0-27.6,0-55.1-0.1-82.7
		c0-3.4,1.2-5.4,4.2-7c11-5.9,21.9-12,32.8-18.2c2.9-1.6,5.3-1.8,8.2-0.1c11.1,6.3,22.3,12.5,33.5,18.6c2.5,1.3,3.5,3.1,3.5,5.9
		c-0.1,11.2,0,22.4,0,33.7c0,1.1,0,2.1,0,3.6c1.3,0,2.4,0,3.4,0c8.8,0,17.5,0,26.3,0c4.6,0,6,1.4,6,6c0,20.6,0,41.1,0,61.7
		c0,1.2,0,2.3,0,3.7c1.3-0.3,2.1-0.4,2.9-0.6c10.7-3,21.4-6,32.1-9c5.9-1.6,7.8-0.2,7.8,6c0,32.7,0,65.3,0,98c0,1,0,1.9,0,3.4
		c2.4,0,4.6-0.1,6.9,0c3.1,0.1,4.9,1.7,5,4.3c0.1,2.7-1.8,4.4-5.1,4.5c-2.3,0-4.5,0-6.8,0c-90.3,0-180.7,0-271,0c-0.6,0-1.2,0-1.8,0
		c-2.8-0.2-4.6-1.9-4.6-4.4s1.8-4.2,4.6-4.4c2.2-0.1,4.5,0,7.2,0c0-1.4,0-2.5,0-3.7c0-31.9,0-63.8,0-95.7c0-6.1,1-7.1,7.2-7.1
		C32.4,155.3,40.3,155.3,48.7,155.3z M131,142.7c4.4,0,8.4,0,12.4,0c5.8,0,7,1.1,7,6.8c0,36.2,0,72.4,0,108.6c0,1.1,0,2.3,0,3.3
		c15.3,0,30.1,0,44.9,0c0-0.9,0.1-1.4,0.1-2c0-66.9,0-133.8,0.1-200.7c0-1.7-0.6-2.6-2.1-3.4c-9.4-5.1-18.7-10.4-28.2-15.5
		c-1-0.6-2.9-0.6-4,0c-9.3,5-18.4,10.2-27.7,15.2c-2,1.1-2.7,2.3-2.7,4.6c0.1,26.6,0.1,53.1,0.1,79.7C131,140.2,131,141.2,131,142.7
		z M102.7,261.6c0-50.6,0-101,0-151.4c-15.1,0-30,0-44.9,0c0,15.1,0,30,0,45.1c3,0,5.7,0,8.5,0c5.6,0,6.8,1.1,6.8,6.7
		c0,31.9,0,63.8,0,95.6c0,1.2,0,2.5,0,3.9C83.1,261.6,92.8,261.6,102.7,261.6z M231,261.6c0-53.4,0-106.7,0-160c-9,0-17.7,0-26.5,0
		c0,53.5,0,106.7,0,160C213.4,261.6,222.1,261.6,231,261.6z M111.8,261.5c10,0,19.7,0,29.5,0c0-36.7,0-73.3,0-109.8
		c-9.9,0-19.6,0-29.5,0C111.8,188.4,111.8,224.8,111.8,261.5z M26.2,164.2c0,32.6,0,64.9,0,97.3c12.7,0,25.2,0,37.8,0
		c0-32.5,0-64.8,0-97.3C51.3,164.2,38.9,164.2,26.2,164.2z M273.8,164.1c-0.7,0-1.1,0-1.4,0.1c-10.1,2.8-20.2,5.7-30.4,8.4
		c-1.9,0.5-2.1,1.7-2.1,3.2c0,27.4,0,54.9,0,82.3c0,1.1,0.1,2.3,0.1,3.4c11.4,0,22.5,0,33.7,0C273.8,229,273.8,196.7,273.8,164.1z"
		/>
	<path class="st0" d="M167.7,173c-0.1,1,0,2-0.2,2.9c-0.5,2.2-1.8,3.5-4.1,3.5c-2.2,0.1-4-1-4.3-3.2c-0.3-2.3-0.4-4.7,0-7
		c0.3-2.2,2.1-3.3,4.3-3.3c2.3,0.1,3.8,1.4,4.2,3.7c0.2,1,0,2.1,0,3.2C167.6,173,167.7,173,167.7,173z"/>
	<path class="st0" d="M167.6,72.8c0,4.6-1.3,6.6-4.3,6.7c-3.1,0.1-4.5-2.1-4.5-6.8c0-0.7,0-1.4,0-2.1c0.2-2.9,2-4.7,4.6-4.6
		c2.4,0.1,4.1,1.9,4.2,4.7C167.7,71.4,167.6,72.1,167.6,72.8z"/>
	<path class="st0" d="M167.7,92.8c0,4.5-1.4,6.6-4.3,6.7c-3.1,0.1-4.5-2.1-4.5-6.8c0-0.7,0-1.4,0-2.1c0.2-2.9,2.1-4.7,4.6-4.6
		s4,1.9,4.2,4.7C167.7,91.5,167.7,92.1,167.7,92.8z"/>
	<path class="st0" d="M146.9,72.8c0,4.6-1.4,6.7-4.3,6.8c-3,0.1-4.5-2.2-4.5-6.9c0-0.7,0-1.4,0-2.1c0.2-2.8,2-4.5,4.5-4.5
		c2.4,0,4.2,1.9,4.3,4.6C147,71.4,146.9,72.1,146.9,72.8z"/>
	<path class="st0" d="M188.4,72.7c0,4.7-1.3,6.7-4.2,6.8c-3.1,0.1-4.6-2.1-4.6-6.8c0-0.5,0-1,0-1.5c0.1-3.2,1.8-5.2,4.4-5.2
		c2.7,0,4.3,1.9,4.4,5.2C188.4,71.7,188.4,72.2,188.4,72.7z"/>
	<path class="st0" d="M188.4,173c0,0.6,0,1.2,0,1.8c-0.1,2.9-1.8,4.7-4.2,4.8c-2.6,0.1-4.4-1.8-4.6-4.7c-0.1-1.4-0.1-2.8,0-4.1
		c0.2-2.8,1.9-4.6,4.4-4.6s4.2,1.8,4.4,4.6C188.4,171.4,188.4,172.2,188.4,173z"/>
	<path class="st0" d="M188.4,192.8c0,4.6-1.3,6.6-4.3,6.7c-3.1,0.1-4.5-2.1-4.5-6.8c0-0.5,0-1,0-1.5c0.1-3.2,1.7-5.2,4.3-5.3
		c2.7-0.1,4.4,1.9,4.5,5.3C188.4,191.8,188.4,192.3,188.4,192.8z"/>
	<path class="st0" d="M146.9,92.7c0,4.5-1.4,6.7-4.3,6.8c-3.1,0.1-4.5-2.1-4.5-6.9c0-0.5,0-1,0-1.5c0.1-3.2,1.8-5.2,4.4-5.1
		c2.7,0,4.3,1.9,4.4,5.2C146.9,91.7,146.9,92.2,146.9,92.7z"/>
	<path class="st0" d="M188.4,92.8c0,4.5-1.4,6.7-4.3,6.7c-3,0-4.4-2.2-4.4-6.7c0-4.7,1.3-6.7,4.3-6.8C187,86,188.3,88,188.4,92.8z"
		/>
	<path class="st0" d="M188.4,132.9c0,0.8,0,1.6,0,2.4c-0.2,2.5-1.5,4-4.1,4.2c-2.4,0.2-4.4-1.4-4.6-4c-0.2-1.7-0.1-3.3,0-5
		c0.2-2.8,2.1-4.5,4.6-4.4c2.4,0.1,4,1.8,4.2,4.5C188.4,131.3,188.4,132.1,188.4,132.9z"/>
	<path class="st0" d="M188.3,152.9c0,0.9,0.1,1.8,0,2.7c-0.3,2.3-1.7,3.8-4.1,3.9c-2.4,0.1-4.1-1.1-4.4-3.4c-0.3-2.1-0.3-4.3,0-6.4
		c0.3-2.3,2.1-3.6,4.4-3.5c2.3,0.1,3.8,1.5,4.1,3.9C188.4,150.9,188.3,151.9,188.3,152.9z"/>
	<path class="st0" d="M167.6,152.9c0,0.8,0.1,1.6,0,2.3c-0.2,2.5-2,4.2-4.4,4.2c-2.3,0-4.2-1.7-4.4-4.2c-0.1-1.6-0.1-3.1,0-4.7
		c0.2-2.8,2-4.6,4.4-4.6c2.5,0,4.3,1.9,4.4,4.8C167.7,151.5,167.6,152.2,167.6,152.9z"/>
	<path class="st0" d="M188.3,113c0,0.8,0.1,1.6,0,2.4c-0.3,2.5-1.6,4-4.2,4.1c-2.5,0.1-4.1-1.4-4.5-3.8c-0.3-1.7-0.2-3.5-0.1-5.3
		c0.2-2.7,2.2-4.4,4.7-4.3c2.3,0.1,3.9,1.9,4.1,4.6C188.4,111.4,188.4,112.2,188.3,113C188.4,113,188.3,113,188.3,113z"/>
	<path class="st0" d="M146.9,112.9c0,0.9,0.1,1.8,0,2.7c-0.4,2.5-2,3.9-4.5,3.9c-2.4,0-3.9-1.4-4.2-3.8c-0.2-1.6-0.2-3.3-0.1-5
		c0.1-2.8,1.9-4.6,4.3-4.6c2.5,0,4.2,1.8,4.4,4.5C147,111.4,146.9,112.2,146.9,112.9L146.9,112.9z"/>
	<path class="st0" d="M167.7,133.1c0,1,0.3,2.3-0.2,2.9c-1.1,1.3-2.4,2.9-3.9,3.4c-1.9,0.6-3.9-0.6-4.3-2.6
		c-0.4-2.5-0.5-5.1-0.1-7.6c0.3-2.1,2.2-3.2,4.5-3c2.2,0.2,3.6,1.5,3.9,3.7c0.1,1.1,0,2.2,0,3.2
		C167.6,133.1,167.7,133.1,167.7,133.1z"/>
	<path class="st0" d="M147,132.9c-0.1,1.1,0,2.2-0.3,3.2c-0.6,2.1-2.2,3.7-4.3,3.2c-1.5-0.4-3.5-1.8-4-3.1c-0.7-2-0.5-4.5-0.2-6.7
		s1.9-3.5,4.2-3.4c2.3,0,3.9,1.4,4.3,3.7c0.2,1,0,2.2,0,3.2C146.9,132.9,147,132.9,147,132.9z"/>
	<path class="st0" d="M167.6,112.8c0,0.8,0.1,1.6,0,2.4c-0.2,2.5-2,4.3-4.4,4.3s-4.2-1.7-4.4-4.3c-0.1-1.6-0.1-3.2,0-4.7
		c0.2-2.8,2-4.5,4.5-4.4s4.1,1.9,4.2,4.7C167.7,111.5,167.6,112.1,167.6,112.8z"/>
	<path class="st0" d="M95.7,145.4c0,4.7-1.3,6.7-4.3,6.8s-4.5-2.1-4.5-6.9c0-0.8,0-1.6,0-2.4c0.3-2.6,2-4.3,4.4-4.2
		c2.4,0,4.1,1.7,4.3,4.3C95.8,143.8,95.7,144.6,95.7,145.4z"/>
	<path class="st0" d="M95.7,188.2c0,4.6-1.3,6.7-4.3,6.7s-4.4-2.1-4.4-6.6c0-0.9,0-1.8,0.1-2.7c0.3-2.5,2.1-4.3,4.5-4.2
		s4,1.8,4.2,4.4C95.8,186.7,95.7,187.5,95.7,188.2z"/>
	<path class="st0" d="M64.7,123.9c0-4.7,1.2-6.7,4.3-6.7c3.1-0.1,4.5,2.1,4.5,6.9c0,0.8,0,1.6-0.1,2.4c-0.3,2.6-2,4.2-4.4,4.2
		s-4.1-1.7-4.3-4.3C64.6,125.5,64.7,124.7,64.7,123.9z"/>
	<path class="st0" d="M64.7,145.1c0-0.9-0.1-1.8,0-2.6c0.4-2.4,1.8-3.7,4.2-3.8c2.4-0.1,4,1.2,4.3,3.6c0.3,1.9,0.3,3.9,0.1,5.9
		c-0.2,2.5-1.8,3.9-4.3,4c-2.3,0.1-4.1-1.7-4.3-4.3C64.6,146.9,64.7,146,64.7,145.1L64.7,145.1z"/>
	<path class="st0" d="M95.7,209.7c0,0.9,0.1,1.8,0,2.6c-0.3,2.4-1.7,3.8-4,3.9c-2.5,0.1-4.2-1.2-4.5-3.7c-0.2-1.7-0.2-3.5-0.1-5.3
		c0.2-2.7,2.1-4.5,4.5-4.4c2.3,0.1,4,1.9,4.2,4.5C95.8,208.1,95.7,208.9,95.7,209.7L95.7,209.7z"/>
	<path class="st0" d="M95.7,166.9c0,4.7-1.3,6.7-4.3,6.7s-4.4-2.1-4.4-6.7c0-0.8,0-1.6,0-2.4c0.2-2.7,2.1-4.6,4.5-4.5s4,1.8,4.2,4.5
		C95.8,165.3,95.7,166.1,95.7,166.9z"/>
	<path class="st0" d="M95.7,124c0,4.6-1.3,6.6-4.3,6.7c-3.1,0-4.5-2.1-4.4-6.9c0-0.7,0-1.4,0-2.1c0.2-2.7,2-4.5,4.5-4.5
		c2.5,0.1,4.1,1.8,4.2,4.7C95.8,122.6,95.7,123.3,95.7,124z"/>
	<path class="st0" d="M59,221.8c0,0.8,0.1,1.6,0,2.3c-0.2,2.5-2.1,4.3-4.4,4.2c-2.3,0-4.2-1.8-4.4-4.3c-0.1-1.5-0.1-2.9,0-4.4
		c0.1-2.9,1.9-4.8,4.4-4.8c2.6,0,4.2,1.9,4.4,4.9C59,220.5,59,221.1,59,221.8L59,221.8z"/>
	<path class="st0" d="M59,201.7c0,4.6-1.3,6.6-4.3,6.7c-3.1,0-4.5-2.1-4.5-6.8c0-4.5,1.4-6.7,4.3-6.7C57.6,194.8,59,197,59,201.7z"
		/>
	<path class="st0" d="M40,201.7c0,0.7,0,1.4,0,2.1c-0.2,2.7-1.9,4.6-4.3,4.6c-2.6,0-4.4-1.8-4.5-4.7c-0.1-1.4-0.1-2.7,0-4.1
		c0.2-2.8,1.9-4.6,4.3-4.6c2.5,0,4.3,1.8,4.5,4.8C40,200.4,40,201,40,201.7L40,201.7z"/>
	<path class="st0" d="M31.2,221.7c0-0.6,0-1.2,0-1.8c0.1-3.2,1.9-5.1,4.5-5c2.5,0,4.2,2,4.3,4.9c0.1,1.3,0.1,2.5,0,3.8
		c-0.1,2.9-2,4.8-4.5,4.8c-2.4-0.1-4.1-1.9-4.3-4.7C31.1,223.1,31.2,222.4,31.2,221.7z"/>
	<path class="st0" d="M40,181.6c0,4.7-1.4,6.8-4.5,6.8c-3,0-4.3-2.1-4.3-6.6c0-4.7,1.4-6.9,4.5-6.8C38.6,174.9,40,177.1,40,181.6z"
		/>
	<path class="st0" d="M59,181.6c0,4.7-1.3,6.7-4.3,6.7c-3.1,0.1-4.5-2-4.5-6.8c0-0.2,0-0.4,0-0.6c0-3.9,1.6-6.1,4.4-6.1
		c2.9,0,4.3,2.1,4.3,6.1C59,181.2,59,181.4,59,181.6z"/>
	<path class="st0" d="M262.2,207.2c0-0.9-0.1-1.8,0-2.6c0.3-2.3,1.7-3.7,4.1-3.8s4.1,1.2,4.4,3.4c0.3,2.1,0.3,4.3,0,6.4
		c-0.3,2.3-2,3.7-4.3,3.6c-2.4-0.1-4-1.5-4.3-4C262.1,209.2,262.2,208.2,262.2,207.2L262.2,207.2z"/>
	<path class="st0" d="M262.1,187.3c0-0.8-0.1-1.6,0-2.4c0.2-2.5,2.1-4.3,4.4-4.3s4.2,1.8,4.4,4.4c0.1,1.5,0.1,3,0,4.4
		c-0.1,2.8-1.9,4.7-4.3,4.7c-2.5,0.1-4.4-1.9-4.5-4.8C262.1,188.7,262.1,188,262.1,187.3L262.1,187.3z"/>
	<path class="st0" d="M243,187.2c0-1,0-2,0.2-2.9c0.4-2.2,1.9-3.8,4-3.5c1.5,0.2,3.8,1.5,4.1,2.8c0.7,2.4,0.7,5.3,0,7.7
		c-0.3,1.2-2.7,2.5-4.2,2.7c-2.1,0.2-3.6-1.3-3.9-3.6c-0.1-1.1,0-2.1,0-3.2C243.1,187.2,243.1,187.2,243,187.2z"/>
	<path class="st0" d="M243.1,207.1c0-0.8-0.1-1.6,0-2.4c0.3-2.4,1.6-3.8,4-4c2.5-0.2,4.2,1.1,4.6,3.6c0.3,1.9,0.3,3.9,0,5.9
		c-0.3,2.5-1.9,3.8-4.4,3.9c-2.3,0.1-4.1-1.8-4.2-4.4C243.1,208.9,243.1,208,243.1,207.1L243.1,207.1z"/>
</g>
</svg>
