<?xml version="1.0" encoding="utf-8"?>
<!-- Generator: Adobe Illustrator 26.0.0, SVG Export Plug-In . SVG Version: 6.00 Build 0)  -->
<svg version="1.1" id="Camada_1" xmlns="http://www.w3.org/2000/svg" xmlns:xlink="http://www.w3.org/1999/xlink" x="0px" y="0px"
	 viewBox="0 0 300 300" style="enable-background:new 0 0 300 300;" xml:space="preserve">
<style type="text/css">
	.st0{fill:#8FD458;}
	.st1{fill:#FBFDFA;}
	.st2{fill:#FEFEFD;}
	.st3{fill:#FDFDFC;}
	.st4{fill:#FFFFFF;}
	.st5{fill:url(#SVGID_1_);}
	.st6{fill:url(#SVGID_00000104697407909990642210000003648927311446974895_);}
</style>
<g>
	<path class="st4" d="M65.4,250.5c1.2,4.3,4.4,5.2,8.6,5.1c31.5-0.1,63.1-0.1,94.6-0.1c2.7,0,5.3,0,7.8,1.4
		c4.3,2.4,6.2,6.8,5.1,12.2c-0.9,4.3-4.2,6.9-9.2,7.1c-2.1,0.1-4.2,0-6.3,0c-31.3,0-62.7,0.1-94-0.1c-3.9,0-6.8,1.1-9.5,3.9
		c-11.5,11.7-30.7,7.4-36.1-8.1c-3.3-9.4-0.4-20.3,7.6-26c2.6-1.9,3.2-3.8,3.2-6.7c-0.1-30,0-60.1,0-90.1c0-0.6,0-1.1,0-1.7
		c-0.2-4-1.6-5.4-5.7-5.5c-5.9-0.1-11.9-0.1-17.8,0c-2.6,0-4.8-0.8-6.9-2.3c-4.3-3-4.6-7.2-3.8-11.7c0.8-3.9,5.1-6.4,9.2-6.5
		c8.2-0.3,16.5-0.6,24.6,0c9.5,0.8,17,7.8,19.3,16.4c1.1,4,1.6,8.2,1.6,12.4c0.1,28.7,0.1,57.4,0.1,86.1c0,1.1,0.1,2.3,0,3.4
		c-0.4,3.7,0.8,6.3,4.6,7.6c0-2,0-3.9,0-5.8c0-15.3,0-30.6,0-45.9c0-0.8,0-1.5,0-2.3c0.2-3.6,1.7-5.2,5.3-5.3
		c5.5-0.1,11.1,0,16.6-0.1c4.3,0,4.4-0.1,4.4-4.6c0-13,0-26,0-39c0-1.3-0.1-2.7,0-4c0.3-4.9,1.9-6.3,6.8-6.4c1,0,1.9,0,2.9,0
		c9,0,18,0,26.9,0c9.3-0.1,8.1,1.1,8.1-8.4c0-32.1,0-64.3,0-96.4c0-2.3,0-4.6,0-6.9c0-2.6,1.2-4.7,2.9-6.6c1.4-1.5,2.9-2.4,5-2.2
		c0.9,0.1,1.9,0,2.9,0c39.4,0,78.7,0.1,118.1-0.1c5,0,8.7,1.5,12.1,5.1c5.7,6.1,11.7,12.1,17.8,17.8c3.7,3.4,4.9,7.5,5.1,12.2
		c0,1,0,1.9,0,2.9c0,52,0,104-0.1,156.1c0,3-0.4,6.1-1.3,9c-1.1,4-3.9,5.7-8.1,5.9c-1.3,0.1-2.7,0-4,0c-32.3,0-64.6,0-96.9,0
		c-8.8,0-7.7-1.1-7.8,8.1c0,3.6,0.1,7.3-0.1,10.9c-0.1,1.7-0.4,3.5-1.1,4.9c-1.5,3.1-3.8,5.2-7.7,4.8c-1.1-0.1-2.3,0-3.4,0
		c-15.6-0.2-31.3-0.5-46.9-0.5c-14.9,0-29.8,0.4-44.7,0.5C72.1,251,68.7,250.7,65.4,250.5z M288.3,129.9c0-3.8,0-7.6,0-11.5
		c0-21.8,0-43.6,0-65.4c0-7,0.3-6.4-6.6-6.4c-3.4,0-6.9,0.1-10.3,0c-6-0.2-8.2-2.5-8.3-8.4c0-3.4,0-6.9,0-10.3c0-7,0.4-6.5-6.5-6.5
		c-35.7,0-71.5,0-107.2,0c-1.1,0-2.3,0-3.4,0c-2.9,0.2-3.1,0.3-3.2,3.4c-0.1,1.3,0,2.7,0,4c0,22.6,0,45.1,0,67.7
		c0,10.9,0,21.8,0,32.7c0,4.1,0.1,4.1,3.8,4.6c4.1,0.6,5.2,1.7,5.3,5.9c0,1.1,0,2.3,0,3.4c0,13.2,0,26.4,0,39.6c0,4.9,0.1,5,5.1,5
		c5,0,10,0.2,14.9-0.1c6-0.4,7.8,2.3,7.5,7.3c-0.3,4.4-0.1,8.8-0.1,13.2c0,4.7,0.1,4.7,4.8,4.8c0.6,0,1.1,0,1.7,0
		c32.1,0,64.2,0,96.3,0c6.5,0,6.2,0.3,6.2-6.3C288.3,181.2,288.3,155.6,288.3,129.9z M170.1,220.1c0-6.5,0.1-13-0.1-19.5
		c0-1.2-0.4-2.7-1.3-3.5c-1.6-1.5-3.9-1.7-5.9-0.9c-2,0.7-1.9,2.6-1.9,4.4c0,4.2,0.1,8.4,0,12.6c-0.1,4-1.6,5.5-5.6,5.6
		c-5,0.1-9.9,0.1-14.9,0c-4.3-0.1-5.7-1.5-5.8-6c-0.1-4.2,0.1-8.4-0.1-12.6c0-1.2-0.6-3.3-1.2-3.5c-2.3-0.5-4.9-0.7-7.2-0.3
		c-2,0.4-1.8,2.6-1.8,4.4c0,12.4,0,24.9,0,37.3c0,4.1,0.7,4.8,4.6,4.8c12.6,0.1,25.2,0.1,37.8,0c3.2,0,3.4-0.3,3.4-3.8
		C170.2,232.8,170.1,226.5,170.1,220.1z M120.8,187.8c5.9,0,11.8,0,17.8,0c5.1,0,5.1-0.1,5.2-5c0-8.4,0-16.8,0-25.2
		c0-3.8,0.1-7.6-0.1-11.5c-0.1-1.2-0.6-3.3-1.3-3.5c-2.3-0.5-4.9-0.7-7.2-0.3c-2,0.4-1.7,2.7-1.8,4.4c0,4,0.1,8,0,12
		c-0.1,4.1-0.7,4.8-4.6,4.8c-5.5,0.1-11.1,0.1-16.6,0c-3.7,0-4.7-1-5.1-4.6c-0.2-1.5-0.1-3.1-0.1-4.6c0-3.2,0-6.5,0-9.7
		c0-1.8-0.8-2.9-2.7-2.8c-1.1,0-2.3,0-3.4,0c-2.2-0.1-3,1-3,3.1c0,13.2,0,26.4,0,39.6c0,2.9,0.3,3.2,3.4,3.2
		C107.8,187.9,114.3,187.8,120.8,187.8z M116.2,219.8c0-6.5,0.1-13,0-19.5c0-3.1-1.9-4.5-5.3-4.4c-2.8,0-3.7,1-3.8,4.4
		c-0.1,3.2,0,6.5,0,9.7c0,1.1,0.1,2.3-0.1,3.4c-0.6,3.8-2.1,5.2-6.1,5.3c-5.2,0.1-10.3,0.1-15.5,0c-3.7-0.1-5.1-1.4-5.8-4.9
		c-0.2-1.3-0.1-2.7-0.1-4c0-3.4,0.1-6.9-0.1-10.3c-0.1-1.1-0.9-2.7-1.8-3.2c-3.9-2-7.3,0.1-7.3,4.5c-0.1,12.4-0.1,24.8,0,37.3
		c0,4.1,0.7,4.8,4.5,4.9c12.2,0.1,24.4,0.1,36.7,0c4,0,4.6-0.7,4.6-4.8C116.3,232,116.2,225.9,116.2,219.8z M61.2,264.7
		c0-8.4-5.4-13.3-13.9-13.9c-7.9-0.6-13.8,6.3-14.5,13.2c-0.7,7.1,7.4,14.6,14.8,14.4C54.3,278.3,61.2,271.4,61.2,264.7z
		 M48.6,191.1c0-15.3-0.1-30.6,0.1-45.9c0-3.4-0.6-6.5-2.5-9.2c-2.1-3-4.8-5.4-8.8-5.5c-0.7,0-1.5,0.8-2.3,1.2
		c0.5,0.7,0.8,1.8,1.4,2c4.1,1.1,6.6,3.9,7.7,7.7c0.7,2.1,0.8,4.5,0.8,6.7c0.1,29.6,0,59.3,0.1,88.9c0,1.5-0.8,4.2,1.5,4.3
		c3,0.1,1.9-2.8,1.9-4.4C48.6,221.7,48.6,206.4,48.6,191.1z M121.5,268.2c15.8,0,31.7,0,47.5,0c1.5,0,4.2,0.8,4.2-1.5
		c0.1-3-2.8-1.9-4.4-1.9c-31.7-0.1-63.3-0.1-95,0c-1.5,0-4.2-0.8-4.2,1.5c-0.1,3,2.8,1.8,4.4,1.9
		C89.8,268.2,105.7,268.2,121.5,268.2z M88.7,203.5c0,1.1,0,2.3,0,3.4c0.1,3.6,0.2,3.7,4,3.8c1,0,1.9,0,2.9,0c2-0.1,3.3-1.1,3.4-3.1
		c0.1-2.9,0.2-5.7-0.1-8.6c-0.1-1.1-1.2-2.5-2.2-2.9c-5.2-1.9-7.9,0.2-8,5.7C88.7,202.4,88.7,203,88.7,203.5z M152.9,203.8
		C152.9,203.8,152.9,203.8,152.9,203.8c0-1.5,0-3.1-0.1-4.6c-0.1-2-1.2-3.2-3.2-3.3c-1.3-0.1-2.7-0.1-4,0c-1.8,0.1-2.9,1.1-2.9,2.9
		c-0.1,3.1-0.2,6.1,0.1,9.2c0.1,0.9,1.1,2.1,2,2.5c5,1.9,8.1-0.3,8.1-5.6C152.9,204.5,152.9,204.2,152.9,203.8z M125.4,148.8
		c0-0.8,0-1.5,0-2.3c-0.1-4.6-0.2-4.7-4.9-4.6c-4.1,0-4.2,0.1-4.3,4c-0.1,2.1-0.1,4.2,0,6.2c0.1,3.2,0.3,3.4,3.7,3.5
		c5.3,0.2,5.4,0.1,5.5-5.2C125.4,150,125.4,149.4,125.4,148.8z M19.2,134c0,0,0-0.1,0-0.1c1.7,0,3.4,0.1,5.1-0.1
		c0.8-0.1,2.1-1,2.1-1.3c-0.2-1-0.9-2.6-1.4-2.6c-4.1-0.2-8.3-0.2-12.4-0.1c-0.5,0-1.5,1.4-1.4,2c0.1,0.7,1.1,1.7,1.8,1.8
		C15,133.9,17.1,133.9,19.2,134z M273.5,28.8c-0.4,0.1-0.8,0.2-1.2,0.3c0,2.4,0,4.9,0,7.3c0,1.3,0.8,2.1,2.1,2.1
		c2.2,0,4.5,0.6,6.9-0.8C278.5,34.6,276,31.7,273.5,28.8z"/>
	<path class="st4" d="M259.6,69.7c1.7,24.8-22.6,45.4-44.8,45c-22.8-0.4-44.9-21.6-44.7-45.2c0.1-23,20.8-45,45.5-44.8
		C240.5,24.8,261.2,46.8,259.6,69.7z M179.3,69.6c-1.4,20.6,15.9,36.6,36.3,36.5c19.9-0.1,35.4-15.5,36-36
		c0.6-20.7-16.9-37.1-36.1-37.1C196.2,32.9,177.6,49.1,179.3,69.6z"/>
	<path class="st4" d="M220.7,162.6c-9.4,0-18.7,0-28.1,0c-1.1,0-2.3,0.1-3.4,0c-3.1-0.2-5-1.8-5.2-4.2c-0.2-2.2,1.3-3.9,4.2-4.6
		c1.3-0.3,2.6-0.3,4-0.3c19.3,0,38.6,0,57.9,0c1.1,0,2.3-0.1,3.4,0.1c2.4,0.5,3.8,2.4,3.8,5c0,2.3-1.1,3.5-4,3.9
		c-1.3,0.2-2.7,0.1-4,0.1C239.8,162.6,230.2,162.6,220.7,162.6z"/>
	<path class="st4" d="M220.6,182.1c9.7,0,19.5,0,29.2,0c1.3,0,2.7-0.1,4,0.2c2.1,0.5,3.6,2.6,3.5,4.6c-0.2,2.2-1.5,3.5-3.5,4.1
		c-1.3,0.3-2.6,0.2-4,0.2c-19.5,0-38.9,0-58.4,0c-1.3,0-2.7,0.1-4-0.2c-2.1-0.5-3.6-2.6-3.5-4.6c0.2-2.2,1.5-3.5,3.5-4.1
		c1.3-0.3,2.6-0.2,4-0.2C201.1,182.1,210.9,182.1,220.6,182.1z"/>
	<path class="st4" d="M220,133.9c-9.6,0-19.1,0-28.7,0c-1.3,0-2.7,0.1-4-0.1c-2.6-0.3-3.5-1.5-3.4-4.2c0.1-2.5,0.9-3.4,3.4-3.7
		c1.1-0.1,2.3-0.1,3.4-0.1c19.9,0,39.8,0,59.6,0c1,0,1.9,0,2.9,0c3.1,0.2,4.1,1.3,4,4.3c-0.1,2.7-0.9,3.7-4,3.7
		C242.2,133.9,231.1,133.9,220,133.9C220,133.9,220,133.9,220,133.9z"/>
	<path class="st4" d="M167.9,123.6c2.1,0,4.2-0.1,6.3,0c4.1,0.3,6,2,6.2,6c0.2,4,0.2,8,0,12c-0.2,4-2.1,5.8-6.2,6
		c-4.2,0.2-8.4,0.2-12.6,0c-3.6-0.1-5.1-1.7-5.2-5.4c-0.1-4.4-0.1-8.8,0-13.2c0.1-3.9,1.6-5.3,5.7-5.5
		C164,123.5,165.9,123.6,167.9,123.6C167.9,123.6,167.9,123.6,167.9,123.6z M167.6,138.5c2.9,0.1,3.7-0.6,3.6-2.9
		c0-2.2-0.7-2.7-3.2-2.8c-2.9-0.1-3.7,0.6-3.6,2.9C164.5,137.8,165.1,138.4,167.6,138.5z"/>
	<path class="st4" d="M168.7,152.3c1.9,0,3.8,0,5.7,0c3.8,0.1,5.5,1.2,5.8,4.8c0.4,4.7,0.3,9.5,0,14.3c-0.1,2.4-3.1,4.8-5.6,4.9
		c-4.2,0.2-8.4,0.2-12.6,0c-4.2-0.3-5.6-2-5.7-6.2c-0.1-3.8-0.1-7.6,0-11.4c0.1-5,1.4-6.2,6.6-6.3
		C164.9,152.2,166.8,152.3,168.7,152.3z M168,167.2c2.7-0.1,3.2-0.6,3.2-3.4c0-2.8-0.7-3.6-3.1-3.5c-2.6,0.1-3.7,1.2-3.7,3.9
		C164.4,166.6,165.2,167.2,168,167.2z"/>
	<path class="st4" d="M207.4,145.4c-6.5,0-13,0.1-19.5,0c-3.1-0.1-4.1-1.3-4-4.3c0.1-2.5,0.9-3.4,3.4-3.7c1.3-0.1,2.7-0.1,4-0.1
		c10.7,0,21.4,0,32.1,0c1.3,0,2.7-0.1,4,0.1c2.6,0.3,3.5,1.5,3.4,4.2c-0.1,2.5-0.9,3.6-3.4,3.6C220.8,145.4,214.1,145.3,207.4,145.4
		C207.4,145.3,207.4,145.3,207.4,145.4z"/>
	<path class="st4" d="M207.4,166c6.3,0,12.6-0.1,18.9,0c3.2,0,4.4,1,4.6,3.1c0.2,2.5-1.7,4.5-4.5,4.9c-1.1,0.1-2.3,0.1-3.4,0.1
		c-10.3,0-20.6,0-30.9,0c-1.1,0-2.3,0.1-3.4,0c-2.9-0.3-4.7-2.3-4.6-4.8c0.1-2.1,1.3-3.1,4.5-3.1C194.8,166,201.1,166,207.4,166z"/>
	<path class="st4" d="M207.4,201.6c-6.3,0-12.6,0.1-18.9,0c-3.2,0-4.4-1-4.5-3.1c-0.1-2.3,1.5-4.4,4-4.8c1.1-0.2,2.3-0.1,3.4-0.1
		c10.7,0,21.4,0,32.1,0c1.3,0,2.7-0.1,4,0.2c2.1,0.5,3.5,2.6,3.4,4.7c-0.1,2-1.3,3-4,3.1C220.4,201.7,213.9,201.6,207.4,201.6z"/>
	<path class="st4" d="M41.7,264.6c0-3.4,3-6.6,5.9-6.4c2.9,0.2,5.6,3.3,5.5,6.3c-0.1,3-3.1,6-5.8,6
		C43.8,270.3,41.6,268.1,41.7,264.6z"/>
	<path class="st4" d="M215.3,102.9c-17.1,1.6-34.2-16.4-33.9-33.6c0.3-17,16.4-33.8,34.4-33.2c18.3,0.6,33.4,15.4,33.3,33.7
		C249,86.3,235.4,103.7,215.3,102.9z M190.8,69.3c-1.5,16.4,13.2,25.5,24.2,25.4c14.5-0.2,25-11.1,25.4-24.6
		c0.4-13.9-12.4-25.6-25.5-25.9C203.2,43.9,188.8,56.6,190.8,69.3z"/>
	<path class="st4" d="M212.6,53.1c0.1-1.4,0.3-2.7,0.4-4.3c1.7,0,3.2,0,4.9,0c0.1,1.3,0.2,2.5,0.4,3.8c2.3,0.6,4.5,1.2,7.3,1.9
		c-0.4,2-0.9,3.9-1.4,6.1c-1.8-0.4-3.2-0.9-4.7-1.1c-1.7-0.2-3.5-0.2-5.2,0.1c-0.7,0.1-1.7,1.3-1.8,2c-0.1,0.7,0.8,1.8,1.5,2.2
		c1.4,0.9,2.9,1.5,4.4,2.2c1.2,0.6,2.4,1.1,3.6,1.7c3.2,1.7,5,4.3,5,7.9c-0.1,4-2.1,6.9-5.7,8.6c-1,0.5-2,0.8-3.1,1.2
		c-0.1,1.6-0.3,3.1-0.4,4.9c-1.7,0-3.2,0-5,0c-0.1-1.5-0.3-2.9-0.4-4.2c-2.8-0.8-5.5-1.5-8.6-2.4c0.6-2.3,1.1-4.3,1.6-6.3
		c2.2,0.6,3.9,1.4,5.7,1.6c1.9,0.2,4,0.2,5.8-0.3c2.1-0.6,2.3-3.1,0.6-4.4c-1.1-0.8-2.5-1.3-3.8-2c-1.8-0.9-3.7-1.5-5.3-2.6
		c-5.6-3.5-5.7-10.7-0.2-14.5C209.5,54.5,211,54,212.6,53.1z"/>
</g>
</svg>
