<svg id="Camada_1" data-name="Camada 1" xmlns="http://www.w3.org/2000/svg" viewBox="0 0 300 300"><defs><style>.cls-1{fill:#fbfdfa;}</style></defs><path class="cls-1" d="M288.54,113a169.14,169.14,0,0,0-17.17-12c-6.1-3.61-8-8.52-7.81-15.35.37-12.73.07-25.48.1-38.22,0-8.69-3.78-15.07-11.66-18.65-21.08-9.57-39.23,1.48-40.31,24.4-.06,1.21-.36,2.41-.86,5.57-13.16-9-25-17-36.83-25.06-19.44-13.32-30-13.17-49.31.42Q91.42,57.52,58,80.65c-15.86,11-31.86,21.83-47.58,33-5.91,4.21-6.69,8.64-3.65,13.69,3.46,5.76,8.36,7.18,14.74,3.9a73.47,73.47,0,0,0,8.21-5.45Q83.32,88.54,137,51.25c12.33-8.56,13.31-8.6,26.14.16,14.25,9.72,28.33,19.69,42.52,29.51,23.64,16.37,47.22,32.84,71,49,7,4.72,12.95,3.84,16.42-1.12C296.66,123.62,295.32,118.27,288.54,113ZM243.1,78.75c-6.16.34-8.5-2.76-9.55-6.94-1.71-6.78-.49-13.69-.19-20.53.13-3,2.56-3.82,5.24-3.68,2.89.15,4.47,1.74,4.49,4.62C243.14,61,243.1,69.82,243.1,78.75Z"/><path class="cls-1" d="M263.86,154.48c0-12.14-5-21.18-15.15-27.87C219.55,107.32,190.4,88,161.52,68.28c-7.83-5.35-14.24-5.94-22.39-.36-28.51,19.52-57.34,38.61-86.26,57.52C41.07,133.15,35.8,143.37,36,157.49c.46,27.56,1.08,55.19-.16,82.71-1,22.17,16.11,36.74,35.94,35.94,25.9-1,51.87-.25,77.8-.25,27.17,0,54.35.2,81.52-.08,19.94-.2,32.48-12.71,32.64-32.43C264,213.75,263.77,184.11,263.86,154.48Zm-90.75,98.18H126.75V207a5.77,5.77,0,0,1,5.77-5.77h34.81a5.77,5.77,0,0,1,5.78,5.77ZM243,241.94c-.11,9.42-3.54,12.45-12.93,12.74-10.29.32-20.59-.09-30.88.12-5.89.11-8-2.6-7.88-8.2.17-9.47.11-18.94,0-28.4-.3-24.06-11.86-35.67-35.62-35.86-5.35-.05-10.71-.17-16.05,0-18,.69-30.15,12.09-31.25,30.09-.65,10.67-.13,21.4-.29,32.09-.15,10-.24,10-10.52,10.2-9.06.13-18.12.23-27.17,0-11.09-.32-13.91-3.1-14.07-14-.22-14-.06-28-.06-42,0-13.58.22-27.17-.09-40.75-.14-6.45,2.24-11,7.48-14.52,26.37-17.55,52.77-35.06,79-52.76,5.28-3.56,9.6-2.94,14.63.48q38.29,26,76.87,51.51c6.18,4.08,8.84,9.56,8.86,16.56C243.17,186.79,243.35,214.37,243,241.94Z"/></svg>