<?xml version="1.0" encoding="utf-8"?>
<!-- Generator: Adobe Illustrator 26.0.0, SVG Export Plug-In . SVG Version: 6.00 Build 0)  -->
<svg version="1.1" id="Camada_1" xmlns="http://www.w3.org/2000/svg" xmlns:xlink="http://www.w3.org/1999/xlink" x="0px" y="0px"
	 viewBox="0 0 300 300" style="enable-background:new 0 0 300 300;" xml:space="preserve">
<style type="text/css">
	.st0{fill:#8FD458;}
	.st1{fill:#FBFDFA;}
	.st2{fill:#FEFEFD;}
	.st3{fill:#FDFDFC;}
	.st4{fill:#FFFFFF;}
	.st5{fill:url(#SVGID_1_);}
	.st6{fill:url(#SVGID_00000124874398787527914870000010388618073275724983_);}
</style>
<g>
	<g>
		<path d="M53.5,88.9c27.9,0,48.7,4.9,67.5,15.9c8.2,4.8,11.9,3.2,17-4.3c24.4-35.7,56.9-61.8,97.3-77c13.1-4.9,27.7-6.3,41.8-7.5
			c11.4-1,14.2,2.9,15.3,14.6c2.2,23.1-3,45.2-11.6,66.1c-11.4,28-23.7,55.7-37.2,82.7c-11.6,23.2-32.7,37-56.1,45.4
			c-16,5.7-23.1,14.5-22.5,31c0.2,6.5-0.9,13.1-1.7,19.6c-0.6,4.9-2.7,9.9-8.4,8.1c-2.9-0.9-6.5-5.9-6.4-8.9
			c0.2-11.4,1.6-22.8,3.1-34.1c0.8-6.3-0.8-10.5-5.3-15.1c-8.7-8.8-19-14-30.3-18.7c-10.1-4.2-19.7-10.3-28.3-17.2
			c-17.8-14.3-35.2-29.2-52.1-44.6c-9.2-8.4-17.2-18.3-25.5-27.7c-4.7-5.3-3.6-10.1,1.9-14.6C25.9,91.6,42.2,88.7,53.5,88.9z
			 M159.7,215.7c2.6-9.3,5.7-17.6,7.1-26.1c1-5.8,1.1-12.7-1.2-17.8c-5.9-13.2-13.3-25.8-20.3-38.5c-1-1.8-2.8-3.1-4.3-4.9
			C120.2,160.9,126.9,193.9,159.7,215.7z M174.5,168c3.5-7.8,5.7-15.3,9.9-21.5c8.2-12.1,7.7-23.3,0.4-35.5c-4.9-8.1-8-17.3-13-28.5
			c-9.1,12-16.9,21.8-24.1,32c-1.2,1.8-1,5.8,0.2,7.9C156.2,137.2,165,151.9,174.5,168z M181.6,170.2c19.9-5.1,36.9-9.4,53.9-13.9
			c1.7-0.5,3.8-1.9,4.6-3.5c5.1-10.4,9.9-20.9,15.5-32.8c-19.9,1-36.9,6.1-53.8,12c-1,0.3-2,1.3-2.5,2.3
			C193.5,145.6,188,157,181.6,170.2z M197.1,119.4c8.1-12,13.6-23,21.7-31.5c10.4-10.9,10.5-21.5,4.5-33.8c-0.1-0.3-0.2-0.5-0.3-0.8
			c-1.6-5.2-4.6-6.1-8.9-3c-10.2,7.3-20.5,14.5-30.4,22.2c-2,1.6-4.2,5.9-3.4,7.8C185.2,93,190.9,105.3,197.1,119.4z M207.4,118.5
			c0.6,0.7,1.1,1.4,1.7,2.1c10.2-2.3,20.3-6.1,30.6-6.5c15.7-0.5,22.9-8,26.7-22.5c4-15.2,5-14.6-10.5-15.1
			c-8.8-0.3-18.1-0.7-23.8,6.5C223.2,94.3,215.6,106.7,207.4,118.5z M232.5,166.5c-1.6-0.5-2.4-1.1-3.1-0.9
			c-15.9,5-31.9,10-47.8,15.2c-1.5,0.5-3.5,1.7-3.9,3c-3.4,10.1-6.4,20.2-9.5,30.3C195.4,205.1,220,194.1,232.5,166.5z M64,155
			c-0.5,1.4-0.9,2.7-1.4,4.1c2.6,1.7,5.7,3,7.6,5.2c10.2,11.5,22.8,15.5,37.7,12.4c2.1-0.4,5.1-1.8,5.7-3.5
			c3.5-8.9-6.4-25-15.8-24.3C86.5,149.8,75.3,152.9,64,155z M95.7,133.7c0.5-1.5,1-2.3,1-3.1c-0.3-4.6-0.6-9.1-1.3-13.7
			c-2.3-16.5-6.7-20.1-23.5-20.1c-5.9,0-6,2.2-5.6,7.4C67.8,122.7,82.5,126.9,95.7,133.7z M115.5,148.8c3.4-9.3,7-18.4,10-27.8
			c0.6-1.7-0.9-5.3-2.5-6.3c-5.9-3.6-12.3-6.5-18.7-9.9C100.1,122,105.7,143.9,115.5,148.8z M89.1,142.4c-13-16.5-36.2-18.2-49.3-5
			C54,159.3,71.4,141.8,89.1,142.4z M266.1,32.6c-0.4-0.8-0.7-1.5-1.1-2.3c-10.5,3.4-21,6.5-31.3,10.4c-2,0.8-4.2,4.9-3.8,7.1
			c1,5.4,3.4,10.6,4.6,14C245.1,52,255.6,42.3,266.1,32.6z M243.8,68.3c10.2,0,17.3,0.3,24.4-0.2c2.1-0.1,5.4-2.2,5.8-3.9
			c1.7-8.4,2.5-17,3.6-25.6c-0.7-0.1-1.4-0.3-2.2-0.4C265.5,47.7,255.4,57.3,243.8,68.3z M59.2,115.2c0.8-0.6,1.7-1.2,2.5-1.8
			c-2.9-5.4-5-14.7-8.8-15.5c-10.3-2.1-20.8,1-31.2,8C35.2,109.3,47.2,112.2,59.2,115.2z M49.4,122.7c0.1-0.7,0.2-1.5,0.2-2.2
			c-8-1.8-15.9-3.9-24-5.3c-1.4-0.2-4.7,2.3-4.7,3.4c0.1,4.8,11.9,11.7,16.3,9.8C41.3,126.8,45.3,124.7,49.4,122.7z M119.6,201.2
			c1.1-14-8.2-19.4-24-14C104.2,192.2,111.5,196.4,119.6,201.2z"/>
		<g>
			<path class="st4" d="M159.7,215.7c-32.8-21.8-39.5-54.8-18.7-87.3c1.6,1.7,3.4,3.1,4.3,4.9c7,12.7,14.4,25.3,20.3,38.5
				c2.3,5.1,2.1,12.1,1.2,17.8C165.5,198.2,162.4,206.4,159.7,215.7z M184.4,146.5c8.2-12.1,7.7-23.3,0.4-35.5
				c-4.9-8.1-8-17.3-13-28.5c-9.1,12-16.9,21.8-24.1,32c-1.2,1.8-1,5.8,0.2,7.9c8.4,14.9,17.2,29.6,26.6,45.7
				C178,160.2,180.2,152.7,184.4,146.5z M235.5,156.3c1.7-0.5,3.8-1.9,4.6-3.5c5.1-10.4,9.9-20.9,15.5-32.8
				c-19.9,1-36.9,6.1-53.8,12c-1,0.3-2,1.3-2.5,2.3c-5.6,11.3-11.2,22.7-17.6,35.9C201.5,165.1,218.5,160.8,235.5,156.3z
				 M218.8,87.9c10.4-10.9,10.5-21.5,4.5-33.8c-0.1-0.3-0.2-0.5-0.3-0.8c-1.6-5.2-4.6-6.1-8.9-3c-10.2,7.3-20.5,14.5-30.4,22.2
				c-2,1.6-4.2,5.9-3.4,7.8c4.9,12.6,10.6,24.9,16.8,39.1C205.2,107.4,210.7,96.4,218.8,87.9z M209.1,120.6
				c10.2-2.3,20.3-6.1,30.6-6.5c15.7-0.5,22.9-8,26.7-22.5c4-15.2,5-14.6-10.5-15.1c-8.8-0.3-18.1-0.7-23.8,6.5
				c-9,11.2-16.6,23.6-24.7,35.5C208,119.2,208.6,119.9,209.1,120.6z M229.4,165.6c-15.9,5-31.9,10-47.8,15.2
				c-1.5,0.5-3.5,1.7-3.9,3c-3.4,10.1-6.4,20.2-9.5,30.3c27.2-9.2,51.8-20.1,64.3-47.7C231,166,230.1,165.4,229.4,165.6z
				 M62.7,159.1c2.6,1.7,5.7,3,7.6,5.2c10.2,11.5,22.8,15.5,37.7,12.4c2.1-0.4,5.1-1.8,5.7-3.5c3.5-8.9-6.4-25-15.8-24.3
				c-11.4,0.8-22.6,3.9-33.9,6.1C63.6,156.4,63.1,157.8,62.7,159.1z M96.6,130.7c-0.3-4.6-0.6-9.1-1.3-13.7
				c-2.3-16.5-6.7-20.1-23.5-20.1c-5.9,0-6,2.2-5.6,7.4c1.5,18.5,16.2,22.7,29.4,29.5C96.2,132.2,96.7,131.4,96.6,130.7z
				 M125.5,121.1c0.6-1.7-0.9-5.3-2.5-6.3c-5.9-3.6-12.3-6.5-18.7-9.9c-4.3,17.1,1.3,38.9,11.1,43.9
				C118.9,139.6,122.6,130.4,125.5,121.1z M39.8,137.5c14.2,21.8,31.6,4.3,49.3,5C76,126,52.9,124.2,39.8,137.5z M265,30.3
				c-10.5,3.4-21,6.5-31.3,10.4c-2,0.8-4.2,4.9-3.8,7.1c1,5.4,3.4,10.6,4.6,14c10.6-9.8,21.1-19.5,31.6-29.1
				C265.7,31.8,265.4,31.1,265,30.3z M268.2,68.1c2.1-0.1,5.4-2.2,5.8-3.9c1.7-8.4,2.5-17,3.6-25.6c-0.7-0.1-1.4-0.3-2.2-0.4
				c-10,9.5-20,19-31.6,30C254,68.3,261.2,68.6,268.2,68.1z M61.7,113.4c-2.9-5.4-5-14.7-8.8-15.5c-10.3-2.1-20.8,1-31.2,8
				c13.7,3.4,25.6,6.3,37.6,9.2C60,114.6,60.8,114,61.7,113.4z M49.6,120.6c-8-1.8-15.9-3.9-24-5.3c-1.4-0.2-4.7,2.3-4.7,3.4
				c0.1,4.8,11.9,11.7,16.3,9.8c4.1-1.7,8.1-3.8,12.2-5.8C49.5,122,49.5,121.3,49.6,120.6z M95.6,187.2c8.6,5,15.9,9.3,24,14
				C120.7,187.1,111.4,181.8,95.6,187.2z"/>
			<g>
				<linearGradient id="SVGID_1_" gradientUnits="userSpaceOnUse" x1="20.9294" y1="123.0097" x2="277.6386" y2="123.0097">
					<stop  offset="0" style="stop-color:#33752A"/>
					<stop  offset="1" style="stop-color:#8FD457"/>
				</linearGradient>
				<path class="st5" d="M159.7,215.7c-32.8-21.8-39.5-54.8-18.7-87.3c1.6,1.7,3.4,3.1,4.3,4.9c7,12.7,14.4,25.3,20.3,38.5
					c2.3,5.1,2.1,12.1,1.2,17.8C165.5,198.2,162.4,206.4,159.7,215.7z M184.4,146.5c8.2-12.1,7.7-23.3,0.4-35.5
					c-4.9-8.1-8-17.3-13-28.5c-9.1,12-16.9,21.8-24.1,32c-1.2,1.8-1,5.8,0.2,7.9c8.4,14.9,17.2,29.6,26.6,45.7
					C178,160.2,180.2,152.7,184.4,146.5z M235.5,156.3c1.7-0.5,3.8-1.9,4.6-3.5c5.1-10.4,9.9-20.9,15.5-32.8
					c-19.9,1-36.9,6.1-53.8,12c-1,0.3-2,1.3-2.5,2.3c-5.6,11.3-11.2,22.7-17.6,35.9C201.5,165.1,218.5,160.8,235.5,156.3z
					 M218.8,87.9c10.4-10.9,10.5-21.5,4.5-33.8c-0.1-0.3-0.2-0.5-0.3-0.8c-1.6-5.2-4.6-6.1-8.9-3c-10.2,7.3-20.5,14.5-30.4,22.2
					c-2,1.6-4.2,5.9-3.4,7.8c4.9,12.6,10.6,24.9,16.8,39.1C205.2,107.4,210.7,96.4,218.8,87.9z M209.1,120.6
					c10.2-2.3,20.3-6.1,30.6-6.5c15.7-0.5,22.9-8,26.7-22.5c4-15.2,5-14.6-10.5-15.1c-8.8-0.3-18.1-0.7-23.8,6.5
					c-9,11.2-16.6,23.6-24.7,35.5C208,119.2,208.6,119.9,209.1,120.6z M229.4,165.6c-15.9,5-31.9,10-47.8,15.2
					c-1.5,0.5-3.5,1.7-3.9,3c-3.4,10.1-6.4,20.2-9.5,30.3c27.2-9.2,51.8-20.1,64.3-47.7C231,166,230.1,165.4,229.4,165.6z
					 M62.7,159.1c2.6,1.7,5.7,3,7.6,5.2c10.2,11.5,22.8,15.5,37.7,12.4c2.1-0.4,5.1-1.8,5.7-3.5c3.5-8.9-6.4-25-15.8-24.3
					c-11.4,0.8-22.6,3.9-33.9,6.1C63.6,156.4,63.1,157.8,62.7,159.1z M96.6,130.7c-0.3-4.6-0.6-9.1-1.3-13.7
					c-2.3-16.5-6.7-20.1-23.5-20.1c-5.9,0-6,2.2-5.6,7.4c1.5,18.5,16.2,22.7,29.4,29.5C96.2,132.2,96.7,131.4,96.6,130.7z
					 M125.5,121.1c0.6-1.7-0.9-5.3-2.5-6.3c-5.9-3.6-12.3-6.5-18.7-9.9c-4.3,17.1,1.3,38.9,11.1,43.9
					C118.9,139.6,122.6,130.4,125.5,121.1z M39.8,137.5c14.2,21.8,31.6,4.3,49.3,5C76,126,52.9,124.2,39.8,137.5z M265,30.3
					c-10.5,3.4-21,6.5-31.3,10.4c-2,0.8-4.2,4.9-3.8,7.1c1,5.4,3.4,10.6,4.6,14c10.6-9.8,21.1-19.5,31.6-29.1
					C265.7,31.8,265.4,31.1,265,30.3z M268.2,68.1c2.1-0.1,5.4-2.2,5.8-3.9c1.7-8.4,2.5-17,3.6-25.6c-0.7-0.1-1.4-0.3-2.2-0.4
					c-10,9.5-20,19-31.6,30C254,68.3,261.2,68.6,268.2,68.1z M61.7,113.4c-2.9-5.4-5-14.7-8.8-15.5c-10.3-2.1-20.8,1-31.2,8
					c13.7,3.4,25.6,6.3,37.6,9.2C60,114.6,60.8,114,61.7,113.4z M49.6,120.6c-8-1.8-15.9-3.9-24-5.3c-1.4-0.2-4.7,2.3-4.7,3.4
					c0.1,4.8,11.9,11.7,16.3,9.8c4.1-1.7,8.1-3.8,12.2-5.8C49.5,122,49.5,121.3,49.6,120.6z M95.6,187.2c8.6,5,15.9,9.3,24,14
					C120.7,187.1,111.4,181.8,95.6,187.2z"/>
			</g>
		</g>
	</g>
</g>
</svg>
