<svg id="Camada_1" data-name="Camada 1" xmlns="http://www.w3.org/2000/svg" viewBox="0 0 300 300"><defs><style>.cls-1{fill:#fff;}</style></defs><path class="cls-1" d="M167.93,282.29c-4.37,3.47-8.58,6.81-12.78,10.16s-6,3.4-10.25-.07c-3.35-2.71-6.81-5.29-10.07-8.11-1.88-1.62-3.31-1.62-5.2,0-3.36,2.9-6.92,5.57-10.39,8.34-3.82,3-5.86,3.08-9.68.08-3.5-2.75-7.08-5.39-10.38-8.35-2.09-1.88-3.57-1.6-5.51.1-3.15,2.74-6.57,5.16-9.72,7.9s-6.27,2.79-9.65.83c-13.6-7.9-20.36-19.2-18.92-35.41.47-5.43-.92-11.25-2.49-16.59-6.88-23.37-10.23-47.26-11.7-71.5C38.76,129.8,44,90.77,53.59,52.15c1.67-6.71,1.81-13.85,2.15-20.82.3-6.43,2.1-11.83,7.48-15.75,3.37-2.46,6.53-5.2,9.92-7.62,3.94-2.8,7.17-2.82,11.18,0s8.08,6.2,12.35,9.5c3.84-3,7.68-5.94,11.4-9,5.65-4.65,7.12-4.67,12.88.06,3.22,2.65,6.52,5.2,9.79,7.79.42.33.86.62,1.66,1.19,3.85-3,7.75-6.09,11.6-9.19,5.6-4.51,6.81-4.49,12.51.13,3.76,3,7.58,6,11.61,9.17,4.35-3.47,8.56-6.8,12.74-10.15,4-3.24,6.3-3.19,10.35.13s8.17,6.56,12.57,10.09c4.12-3.29,8.17-6.38,12.05-9.67,3-2.5,5.91-3.43,9.56-1.42,12.11,6.68,19.9,16.21,19.25,30.64-.41,9.06,1.43,17.55,3.81,26.17,7.14,25.8,10.27,52.19,10.87,78.93.79,35.23-4,69.73-12.55,103.83A77.8,77.8,0,0,0,244.65,265c0,9.53-3.07,17-11.32,22.22a56.77,56.77,0,0,0-5.91,4.89c-4.18,3.48-7.33,3.51-11.53.09-3.34-2.72-6.67-5.45-10-8.23-1.57-1.33-2.84-1.43-4.51,0-3.35,2.91-6.93,5.56-10.39,8.35-4.33,3.49-6,3.5-10.25.12S172.35,285.78,167.93,282.29Zm-18.26-32.84q39.62,0,79.23,0c6.29,0,7.18-.74,8.85-6.95a354.63,354.63,0,0,0,11.48-115.57A365.21,365.21,0,0,0,237.65,57c-1.51-5.71-2.8-6.52-8.84-6.52q-78.62,0-157.23,0c-6.41,0-7.49.69-9.12,6.65a354.94,354.94,0,0,0,0,185.84c1.59,5.83,2.44,6.48,8.36,6.48Q110.27,249.47,149.67,249.45ZM78.74,15.62c-3.37,2.73-6.73,5.17-9.77,8-3.54,3.25-4.39,7.4-3.67,12.17.56,3.81,2.14,4.94,6,4.93,36.89-.17,73.77-.1,110.66-.1,16,0,32-.07,48.06.06,3,0,4.24-.87,4.72-3.95,1.23-7.91-1.95-13.85-10.5-19.06-2.06-1.25-3.65-1.62-5.65.21-2.88,2.62-6.08,4.88-9.06,7.39-4.54,3.82-7.1,3.8-11.68,0-3.19-2.68-6.56-5.15-9.72-7.86-1.64-1.4-2.89-1.44-4.54,0-3.26,2.81-6.67,5.44-10,8.16-4.31,3.51-6.8,3.5-11.07,0-3.44-2.8-6.84-5.67-10.48-8.19a4.34,4.34,0,0,0-4,0c-3.83,2.71-7.4,5.81-11.1,8.73s-5.74,2.82-9.35,0c-3.37-2.67-6.82-5.27-10-8.11-2.17-1.92-3.87-2.23-6.17-.13-3.08,2.81-6.47,5.26-9.74,7.86-4.27,3.4-6.09,3.41-10.3.06S83.19,19.19,78.74,15.62Zm107.2,268.8c4.42-3.58,8.67-7.07,13-10.48,3.54-2.81,6.27-2.76,9.81.07a93.54,93.54,0,0,1,8.39,6.93c3.3,3.33,6,2.6,9.37.06,5.57-4.25,9.41-9.18,8.63-16.64-.38-3.59-1.73-5.07-5.86-5.05-52.65.18-105.29.12-157.94.12a5.93,5.93,0,0,0-2.39.06c-1.12.58-2.76,1.38-2.94,2.33a21.36,21.36,0,0,0-.37,7.91c1.44,7.54,7.49,10.9,13.41,14.27,3.53-2.84,6.72-5.54,10-8,5.84-4.37,8.7-4.41,14.52-.14,3.66,2.69,7.17,5.6,10.9,8.53,4.23-3.4,8.33-6.66,12.4-10s6.26-3.32,10.36-.09L150,284.37c4.3-3.38,8.35-6.7,12.54-9.83,4.52-3.39,6.29-3.37,10.8,0C177.55,277.71,181.61,281,185.94,284.42Z"/><path class="cls-1" d="M150,234.4c-46.3,0-84.47-38-84.5-84.19,0-46.4,38.2-84.89,84.37-84.95s84.86,38.63,84.85,84.65C234.71,196.18,196.38,234.4,150,234.4Zm75.12-84.27A75.14,75.14,0,0,0,150.3,74.91c-41-.26-75.37,33.77-75.46,74.77s34.05,75.36,74.95,75.44S225,191.18,225.11,150.13Z"/><path class="cls-1" d="M155.28,164.64v8.82c2.73-1.56,5.08-3,7.52-4.27,8.06-4.21,16.49-4.48,25.07-2,4.19,1.22,6.3,4.43,6.4,9.21A32.39,32.39,0,0,1,156.51,209a37.17,37.17,0,0,0-12,0c-21.25,3.71-39.76-12.52-38.56-34.08.22-3.92,2.67-6.79,6.85-7.94A33.45,33.45,0,0,1,142,171.88c.66.46,1.33.9,2.41,1.63v-8.73c-3.45-.17-7-.22-10.61-.53-18.44-1.64-29.09-18.11-27.76-35.36.32-4.21,3.44-5.87,7.2-6.36,5.46-.72,10.94-1.26,16.7-1.9.59-2.67,1.08-5.42,1.8-8.1,2.27-8.41,7.36-14.83,14.25-20,2.75-2.06,5.44-2.1,8.15-.07,8.31,6.23,14,14.09,15.17,24.68.3,2.81,1.26,3.93,4.18,4,4.56.13,9.13.61,13.67,1.16,5.15.63,7.08,3,7.17,8.42.34,19.85-12.86,33.15-33.65,33.88C159,164.69,157.27,164.64,155.28,164.64Zm-5-62.65c-11.95,9.16-13.49,23.42-3.66,33.88,2.8,3,4.57,2.95,7.29-.12C163.37,125,161.88,111.17,150.25,102Zm12.07,97.59c12,.23,21-7.91,21.88-19.56.19-2.54-.4-4.11-3.2-4.48-12-1.57-22.45,4.8-24.84,15.89C154.63,198.49,155.22,199.45,162.32,199.58Zm-46.09-23c-1.7,14.46,12.38,26.64,26.16,22.48a4.07,4.07,0,0,0,2.14-3.1C144.71,181.69,129.9,171.61,116.23,176.61ZM116.15,132c-1.16,16.17,13.57,27.18,28.34,21.45C144.53,139,129.78,127.71,116.15,132Zm45.52,22.75c12.71,0,21.14-7.18,22.55-19,.44-3.6-.85-4.77-4.29-4.87-10.42-.29-20.66,6.94-23.56,16.84C154.56,154,155.16,154.78,161.67,154.78Z"/></svg>