<svg id="Camada_1" data-name="Camada 1" xmlns="http://www.w3.org/2000/svg" viewBox="0 0 300 300"><defs><style>.cls-1{fill:#fff;}</style></defs><path class="cls-1" d="M10.51,152.88C11.27,97.77,44.22,49,93.23,27.73c11.14-4.82,17.67-.53,18.06,11.84.27,8.8,0,17.62.07,26.43.06,6.71-2.72,11.36-8.51,15-24.56,15.52-38.39,38.33-40.7,66.9-2.38,29.43,8.26,54.73,30.94,74,46.63,39.54,117.34,21.1,139.28-36A86.92,86.92,0,0,0,203.74,85.72c-15.85-12-15.22-7.76-15-30.88,0-5.08-.17-10.17-.06-15.25.26-12,7.07-16.65,18.11-11.82a133.57,133.57,0,0,1,57.45,47C318.56,153.5,282.06,264.29,185.12,290c-40.34,10.68-79,4.45-113.43-19.59C35,244.74,13.65,209.56,11.33,164,11.16,160.61,10.84,157.23,10.51,152.88Z"/><path class="cls-1" d="M175.51,74.93c0,13.57,0,27.13,0,40.69-.06,15.78-9.62,26.37-24.28,27s-26.95-10-27.25-25.44c-.55-28.81-.42-57.65,0-86.46.14-10.54,5.33-18.94,15.27-23.35,9-4,17.93-2.89,26,2.82,6.45,4.58,10.1,10.9,10.13,19,.05,15.25,0,30.51,0,45.76Z"/></svg>