<svg id="Camada_1" data-name="Camada 1" xmlns="http://www.w3.org/2000/svg" xmlns:xlink="http://www.w3.org/1999/xlink" viewBox="0 0 300 300"><defs><style>.cls-1{fill:#fff;}.cls-2{fill:url(#Gradiente_sem_nome_17);}</style><linearGradient id="Gradiente_sem_nome_17" x1="60.46" y1="79.51" x2="224.74" y2="79.51" gradientUnits="userSpaceOnUse"><stop offset="0" stop-color="#33752a"/><stop offset="1" stop-color="#8fd457"/></linearGradient></defs><path d="M81.31,57.7c17.83,0,31.14,3.1,43.2,10.19,5.22,3.08,7.63,2,10.88-2.72C151,42.33,171.81,25.6,197.67,15.9c8.36-3.14,17.74-4,26.75-4.81,7.31-.66,9.09,1.85,9.79,9.35,1.4,14.8-1.94,28.91-7.4,42.33C219.52,80.68,211.62,98.4,203,115.69,195.56,130.51,182,139.35,167,144.74c-10.24,3.68-14.79,9.27-14.39,19.82.16,4.17-.57,8.4-1.08,12.57-.39,3.13-1.73,6.34-5.4,5.2-1.86-.57-4.16-3.75-4.12-5.71a192.85,192.85,0,0,1,2-21.83c.54-4-.49-6.69-3.43-9.66-5.57-5.63-12.17-8.93-19.36-12a78.22,78.22,0,0,1-18.09-11c-11.42-9.13-22.52-18.7-33.33-28.56-5.9-5.39-11-11.69-16.32-17.71-3-3.42-2.34-6.49,1.21-9.33A42,42,0,0,1,81.31,57.7Zm68,81.13c1.69-5.94,3.67-11.23,4.58-16.7.61-3.71.73-8.13-.74-11.43-3.79-8.45-8.55-16.48-13-24.62A19.24,19.24,0,0,0,137.34,83C124,103.75,128.3,124.89,149.28,138.83Zm9.47-30.51c2.22-5,3.62-9.82,6.31-13.78,5.26-7.75,4.95-14.89.26-22.74-3.11-5.21-5.11-11.07-8.34-18.26-5.85,7.68-10.82,13.93-15.41,20.45-.8,1.14-.62,3.72.13,5.06C147.05,88.59,152.67,98,158.75,108.32Zm4.51,1.39c12.75-3.27,23.65-6,34.51-8.91a5,5,0,0,0,2.91-2.22c3.26-6.63,6.32-13.35,9.89-21-12.71.68-23.64,3.91-34.45,7.7a3.12,3.12,0,0,0-1.59,1.45C170.93,94,167.39,101.27,163.26,109.71Zm10-32.49c5.18-7.68,8.7-14.72,13.9-20.16,6.66-7,6.71-13.79,2.85-21.63a4,4,0,0,1-.16-.52c-1-3.33-3-3.9-5.73-1.89-6.5,4.7-13.1,9.28-19.43,14.21-1.3,1-2.66,3.75-2.18,5C165.6,60.28,169.24,68.16,173.21,77.22Zm6.6-.58,1.1,1.33c6.52-1.46,13-3.93,19.57-4.14,10.06-.33,14.64-5.13,17.11-14.4,2.58-9.7,3.18-9.35-6.69-9.64-5.63-.16-11.56-.46-15.26,4.16C189.89,61.14,185,69,179.81,76.64Zm16.05,30.72c-1-.31-1.57-.72-2-.59q-15.31,4.8-30.57,9.75a4.13,4.13,0,0,0-2.51,1.94c-2.15,6.44-4.09,12.94-6.1,19.42C172.13,132,187.89,125,195.86,107.36ZM88,100l-.87,2.63c1.65,1.09,3.62,1.9,4.9,3.33,6.54,7.35,14.59,9.94,24.11,8,1.36-.28,3.25-1.18,3.68-2.27,2.24-5.69-4.12-16-10.13-15.52C102.44,96.65,95.27,98.63,88,100Zm20.25-13.64a7.25,7.25,0,0,0,.62-1.95c-.22-2.92-.4-5.85-.8-8.74-1.48-10.58-4.29-12.83-15.06-12.88-3.75,0-3.85,1.42-3.58,4.72C90.43,79.32,99.86,82,108.29,86.35ZM121,96c2.19-5.93,4.51-11.78,6.42-17.77a4.59,4.59,0,0,0-1.58-4c-3.78-2.33-7.85-4.19-12-6.31C111.1,78.89,114.72,92.85,121,96Zm-16.93-4.1c-8.34-10.53-23.14-11.66-31.53-3.18C81.6,102.7,92.78,91.52,104.06,91.94Zm113.3-70.28-.69-1.48c-6.69,2.17-13.46,4.16-20,6.67-1.28.49-2.71,3.16-2.46,4.53.63,3.48,2.18,6.8,2.93,8.93ZM203.11,44.47c6.52,0,11.08.19,15.62-.12,1.33-.09,3.47-1.41,3.68-2.47,1.06-5.4,1.6-10.9,2.33-16.36l-1.38-.27Zm-118.18,30,1.59-1.13c-1.85-3.46-3.2-9.39-5.66-9.9-6.58-1.35-13.33.66-20,5.12Zm-6.27,4.84.15-1.39c-5.1-1.18-10.18-2.5-15.34-3.4-.9-.16-3,1.44-3,2.2.07,3,7.59,7.47,10.4,6.3C73.52,81.93,76.07,80.58,78.66,79.33Zm45,50.18c.72-9-5.25-12.41-15.36-8.94Z"/><path class="cls-1" d="M149.28,138.83C128.3,124.89,124,103.75,137.34,83a19.24,19.24,0,0,1,2.78,3.13c4.45,8.14,9.21,16.17,13,24.62,1.47,3.3,1.35,7.72.74,11.43C153,127.6,151,132.89,149.28,138.83Zm15.78-44.29c5.26-7.75,4.95-14.89.26-22.74-3.11-5.21-5.11-11.07-8.34-18.26-5.85,7.68-10.82,13.93-15.41,20.45-.8,1.14-.62,3.72.13,5.06,5.35,9.54,11,18.92,17.05,29.27C161,103.34,162.37,98.5,165.06,94.54Zm32.71,6.26a5,5,0,0,0,2.91-2.22c3.26-6.63,6.32-13.35,9.89-21-12.71.68-23.64,3.91-34.45,7.7a3.12,3.12,0,0,0-1.59,1.45c-3.6,7.25-7.14,14.54-11.27,23C176,106.44,186.91,103.7,197.77,100.8ZM187.11,57.06c6.66-7,6.71-13.79,2.85-21.63a4,4,0,0,1-.16-.52c-1-3.33-3-3.9-5.73-1.89-6.5,4.7-13.1,9.28-19.43,14.21-1.3,1-2.66,3.75-2.18,5,3.14,8.07,6.78,15.95,10.75,25C178.39,69.54,181.91,62.5,187.11,57.06ZM180.91,78c6.52-1.46,13-3.93,19.57-4.14,10.06-.33,14.64-5.13,17.11-14.4,2.58-9.7,3.18-9.35-6.69-9.64-5.63-.16-11.56-.46-15.26,4.16C189.89,61.14,185,69,179.81,76.64Zm13,28.8q-15.31,4.8-30.57,9.75a4.13,4.13,0,0,0-2.51,1.94c-2.15,6.44-4.09,12.94-6.1,19.42,17.42-5.86,33.18-12.87,41.15-30.52C194.86,107.05,194.29,106.64,193.89,106.77ZM87.17,102.62c1.65,1.09,3.62,1.9,4.9,3.33,6.54,7.35,14.59,9.94,24.11,8,1.36-.28,3.25-1.18,3.68-2.27,2.24-5.69-4.12-16-10.13-15.52-7.29.53-14.46,2.51-21.69,3.87ZM108.91,84.4c-.22-2.92-.4-5.85-.8-8.74-1.48-10.58-4.29-12.83-15.06-12.88-3.75,0-3.85,1.42-3.58,4.72,1,11.82,10.39,14.51,18.82,18.85A7.25,7.25,0,0,0,108.91,84.4Zm18.5-6.13a4.59,4.59,0,0,0-1.58-4c-3.78-2.33-7.85-4.19-12-6.31-2.78,11,.84,24.91,7.11,28.1C123.18,90.11,125.5,84.26,127.41,78.27ZM72.53,88.76c9.07,13.94,20.25,2.76,31.53,3.18C95.72,81.41,80.92,80.28,72.53,88.76ZM216.67,20.18c-6.69,2.17-13.46,4.16-20,6.67-1.28.49-2.71,3.16-2.46,4.53.63,3.48,2.18,6.8,2.93,8.93l20.24-18.65Zm2.06,24.17c1.33-.09,3.47-1.41,3.68-2.47,1.06-5.4,1.6-10.9,2.33-16.36l-1.38-.27L203.11,44.47C209.63,44.47,214.19,44.66,218.73,44.35Zm-132.21,29c-1.85-3.46-3.2-9.39-5.66-9.9-6.58-1.35-13.33.66-20,5.12l24.06,5.91Zm-7.71,4.58c-5.1-1.18-10.18-2.5-15.34-3.4-.9-.16-3,1.44-3,2.2.07,3,7.59,7.47,10.4,6.3,2.66-1.11,5.21-2.46,7.8-3.71Zm29.44,42.63,15.36,8.94C124.33,120.54,118.36,117.1,108.25,120.57Z"/><path class="cls-2" d="M149.28,138.83C128.3,124.89,124,103.75,137.34,83a19.24,19.24,0,0,1,2.78,3.13c4.45,8.14,9.21,16.17,13,24.62,1.47,3.3,1.35,7.72.74,11.43C153,127.6,151,132.89,149.28,138.83Zm15.78-44.29c5.26-7.75,4.95-14.89.26-22.74-3.11-5.21-5.11-11.07-8.34-18.26-5.85,7.68-10.82,13.93-15.41,20.45-.8,1.14-.62,3.72.13,5.06,5.35,9.54,11,18.92,17.05,29.27C161,103.34,162.37,98.5,165.06,94.54Zm32.71,6.26a5,5,0,0,0,2.91-2.22c3.26-6.63,6.32-13.35,9.89-21-12.71.68-23.64,3.91-34.45,7.7a3.12,3.12,0,0,0-1.59,1.45c-3.6,7.25-7.14,14.54-11.27,23C176,106.44,186.91,103.7,197.77,100.8ZM187.11,57.06c6.66-7,6.71-13.79,2.85-21.63a4,4,0,0,1-.16-.52c-1-3.33-3-3.9-5.73-1.89-6.5,4.7-13.1,9.28-19.43,14.21-1.3,1-2.66,3.75-2.18,5,3.14,8.07,6.78,15.95,10.75,25C178.39,69.54,181.91,62.5,187.11,57.06ZM180.91,78c6.52-1.46,13-3.93,19.57-4.14,10.06-.33,14.64-5.13,17.11-14.4,2.58-9.7,3.18-9.35-6.69-9.64-5.63-.16-11.56-.46-15.26,4.16C189.89,61.14,185,69,179.81,76.64Zm13,28.8q-15.31,4.8-30.57,9.75a4.13,4.13,0,0,0-2.51,1.94c-2.15,6.44-4.09,12.94-6.1,19.42,17.42-5.86,33.18-12.87,41.15-30.52C194.86,107.05,194.29,106.64,193.89,106.77ZM87.17,102.62c1.65,1.09,3.62,1.9,4.9,3.33,6.54,7.35,14.59,9.94,24.11,8,1.36-.28,3.25-1.18,3.68-2.27,2.24-5.69-4.12-16-10.13-15.52-7.29.53-14.46,2.51-21.69,3.87ZM108.91,84.4c-.22-2.92-.4-5.85-.8-8.74-1.48-10.58-4.29-12.83-15.06-12.88-3.75,0-3.85,1.42-3.58,4.72,1,11.82,10.39,14.51,18.82,18.85A7.25,7.25,0,0,0,108.91,84.4Zm18.5-6.13a4.59,4.59,0,0,0-1.58-4c-3.78-2.33-7.85-4.19-12-6.31-2.78,11,.84,24.91,7.11,28.1C123.18,90.11,125.5,84.26,127.41,78.27ZM72.53,88.76c9.07,13.94,20.25,2.76,31.53,3.18C95.72,81.41,80.92,80.28,72.53,88.76ZM216.67,20.18c-6.69,2.17-13.46,4.16-20,6.67-1.28.49-2.71,3.16-2.46,4.53.63,3.48,2.18,6.8,2.93,8.93l20.24-18.65Zm2.06,24.17c1.33-.09,3.47-1.41,3.68-2.47,1.06-5.4,1.6-10.9,2.33-16.36l-1.38-.27L203.11,44.47C209.63,44.47,214.19,44.66,218.73,44.35Zm-132.21,29c-1.85-3.46-3.2-9.39-5.66-9.9-6.58-1.35-13.33.66-20,5.12l24.06,5.91Zm-7.71,4.58c-5.1-1.18-10.18-2.5-15.34-3.4-.9-.16-3,1.44-3,2.2.07,3,7.59,7.47,10.4,6.3,2.66-1.11,5.21-2.46,7.8-3.71Zm29.44,42.63,15.36,8.94C124.33,120.54,118.36,117.1,108.25,120.57Z"/><path class="cls-1" d="M39.07,269.73q0,6.87,2.78,8.8t11.95,1.93q13.61,0,21.28-7.52t9-22.18h7.17L89.18,287H5v-6.49q6.93-.61,9-2.55c1.36-1.29,2-4,2-8.18V211c0-4.16-.67-6.89-2-8.18S9.62,200.69,5,200.27v-6.49H49.93v6.49c-4.53.38-7.48,1.2-8.83,2.47s-2,4-2,8.27Z"/><path class="cls-1" d="M159.77,252.57H119.51c0,.58-.07,1.22-.09,1.9s0,1.68,0,3q0,12.6,3.49,18.56t10.93,6a17.28,17.28,0,0,0,10.73-3.84,31.41,31.41,0,0,0,8.61-10.95l6,2.12q-3.93,9.87-11.42,14.79T129.25,289a32.22,32.22,0,0,1-12-2.24,30.85,30.85,0,0,1-10-6.43,33.53,33.53,0,0,1-7.8-11.76,39.91,39.91,0,0,1-2.68-14.83q0-15.72,9.08-25.58t23.43-9.86q13.73,0,22.12,9.11t8.4,24.27Zm-40.38-5.87h19.28v-1.18q0-11.55-2.21-16.45a7.6,7.6,0,0,0-7.4-4.9,7.41,7.41,0,0,0-7.21,4.84Q119.71,233.84,119.39,246.7Z"/><path class="cls-1" d="M208.26,278.28a45.68,45.68,0,0,1-11.39,8A26.36,26.36,0,0,1,185.48,289a17.93,17.93,0,0,1-12.86-4.8A16.13,16.13,0,0,1,167.57,272q0-10.49,9.7-16.35T207,248.2V239q0-8.68-2.69-11.89t-9.3-3.22a13.32,13.32,0,0,0-5.11.91c-1.46.6-2.19,1.24-2.19,1.9a2.65,2.65,0,0,0,.38.75l.25.44,1.81,2.81a7.77,7.77,0,0,1,.9,2.15,9.9,9.9,0,0,1,.34,2.59,7.88,7.88,0,0,1-2.81,6.21,12,12,0,0,1-14.78-.16,8.84,8.84,0,0,1-2.88-6.86q0-7.11,7.56-11.73T198,218.31q14.61,0,21.53,6.11t6.93,19.1v32.2a4.39,4.39,0,0,0,.62,2.59,2.26,2.26,0,0,0,1.94.84,6.74,6.74,0,0,0,2.46-.68,7,7,0,0,1,2.15-.69,1.79,1.79,0,0,1,1.35.66,2.13,2.13,0,0,1,.59,1.46c0,1.83-1.54,3.71-4.62,5.62a18.38,18.38,0,0,1-9.86,2.87,12.5,12.5,0,0,1-7.92-2.43A16,16,0,0,1,208.26,278.28ZM207,253.63q-9.93,1.44-14.8,5.21a12,12,0,0,0-4.86,10,9.16,9.16,0,0,0,2.37,6.68,8.73,8.73,0,0,0,6.55,2.44,9,9,0,0,0,8.3-4.4q2.69-4.41,2.68-13.64,0-1.06,0-2.31T207,253.63Z"/><path class="cls-1" d="M267.23,272.1q0,5,1.56,7t5.24,2H278V287H240.77v-5.86q4-.63,5.33-2.31t1.35-6.68V231.6h-7.68v-6.12h7.68c0-.33,0-.84-.07-1.52s-.06-1.2-.06-1.53q0-16.29,7.46-25t21.31-8.73q8.49,0,13.7,4A12.62,12.62,0,0,1,295,203.14a8.7,8.7,0,0,1-2.65,6.71,10.15,10.15,0,0,1-7.21,2.47,8.6,8.6,0,0,1-6.12-2.06,8.75,8.75,0,0,1-1.77-8.43,6,6,0,0,1,1.09-2l1.43-1.69a3.59,3.59,0,0,0,.47-.84,2.41,2.41,0,0,0,.16-.84c0-.59-.4-1.12-1.19-1.6a5.28,5.28,0,0,0-2.74-.71,7.4,7.4,0,0,0-7,4.21q-2.2,4.22-2.21,13.57v13.54H283v6.12H267.23Z"/></svg>