<svg id="Camada_1" data-name="Camada 1" xmlns="http://www.w3.org/2000/svg" viewBox="0 0 300 300"><defs><style>.cls-1{fill:#fff;}</style></defs><path class="cls-1" d="M114.1,238.4,86.67,255.67c-38.55-17.41-65.16-70.15-59.42-119.5,5.32-45.76,38-95.93,107.62-108.67V5l59.77,37.2L135.73,79.08c-.41-7.45-.72-13.29-1-19.13-26.3,1.35-63.87,24.62-74.11,64.74C47.54,175.81,68.06,213,114.1,238.4Z"/><path class="cls-1" d="M186.05,63.26c9.12-5.66,17.28-10.68,25.39-15.78,3.79-2.39,6.33.26,9,2.12,25.59,18.05,42.5,42.28,49.7,72.7,16.19,68.35-26.63,135.17-95.37,149.62-2.6.55-5.15,1.34-8.76,2.28V295c-8.1-1.85-51.47-28.7-58.85-36.38l57.77-36.16c.5,7.56.88,13.36,1.26,19.14,31.57-2.33,64.13-29.44,73.08-63.2C252.92,126.85,232.44,89.6,186.05,63.26Z"/><path class="cls-1" d="M141.13,100.81c.44-4.26.85-8.18,1.34-13h15c.38,4,.72,7.58,1.11,11.64l22.12,5.89c-1.36,6.13-2.61,11.74-4.1,18.44-5.36-1.29-9.72-2.86-14.19-3.28a55.69,55.69,0,0,0-15.64.37c-2.22.42-5.18,3.8-5.37,6s2.3,5.32,4.47,6.72c4.17,2.68,8.95,4.42,13.46,6.58,3.61,1.72,7.27,3.35,10.8,5.23,9.62,5.13,15.3,13,15.08,24.1-.25,12.09-6.31,20.84-17.24,26-3,1.42-6.15,2.38-9.52,3.67-.44,4.71-.86,9.28-1.36,14.72H142c-.45-4.54-.87-8.73-1.27-12.8l-26-7.29c1.84-7.11,3.37-13,5-19.24,6.56,1.88,11.9,4.17,17.42,4.78,5.77.64,12,.68,17.52-.85,6.26-1.74,7.05-9.43,1.71-13.34-3.45-2.53-7.62-4.08-11.51-6-5.38-2.64-11.1-4.7-16.14-7.87-17.15-10.76-17.43-32.6-.64-43.93C131.86,104.94,136.28,103.26,141.13,100.81Z"/></svg>