<svg id="Camada_1" data-name="Camada 1" xmlns="http://www.w3.org/2000/svg" viewBox="0 0 300 300"><defs><style>.cls-1{fill:#8fd458;}.cls-2{fill:#fbfdfa;}.cls-3{fill:#fefefd;}</style></defs><path class="cls-1" d="M295,150.1c0,79.69-64.9,144.64-144.56,144.67-80.35,0-145.5-65-145.44-145.24C5.06,69.84,69.87,5.26,149.82,5.23,230.73,5.21,295,69.33,295,150.1ZM149.09,242.79q33.76,0,67.54,0c5.37,0,10.19.11,9.83-7.65-1.39-30.27-12.21-55-40.08-70.11-5.72-3.11-11.1-4.31-17.68-1.9a53.63,53.63,0,0,1-37.63-.09c-6-2.2-11.25-1.51-16.68,1.43-27.71,15-39.4,39.29-40.78,69.7-.34,7.58,3.81,8.78,10.26,8.71C105.61,242.63,127.35,242.79,149.09,242.79Zm1.26-87.67a48.32,48.32,0,0,0,48.59-48.77c-.05-26.8-22-49-48.67-49.25-27-.2-49.64,22.71-49.24,49.87A48.68,48.68,0,0,0,150.35,155.12Z"/><path class="cls-2" d="M149.09,242.79c-21.74,0-43.48-.16-65.22.11-6.45.07-10.6-1.13-10.26-8.71,1.38-30.41,13.07-54.69,40.78-69.7,5.43-2.94,10.64-3.63,16.68-1.43a53.63,53.63,0,0,0,37.63.09c6.58-2.41,12-1.21,17.68,1.9,27.87,15.12,38.69,39.84,40.08,70.11.36,7.76-4.46,7.67-9.83,7.65Q182.87,242.74,149.09,242.79Z"/><path class="cls-3" d="M150.35,155.12A48.68,48.68,0,0,1,101,107c-.4-27.16,22.23-50.07,49.24-49.87,26.64.2,48.62,22.45,48.67,49.25A48.32,48.32,0,0,1,150.35,155.12Z"/></svg>