<svg id="Camada_1" data-name="Camada 1" xmlns="http://www.w3.org/2000/svg" viewBox="0 0 300 300"><defs><style>.cls-1{fill:#fff;}</style></defs><path class="cls-1" d="M5.09,242.72c-2-43,30.52-93.86,90.74-102.7-5.1-2.52-9.87-4.63-14.4-7.18-16-9-29-20.63-34-39.09-9.55-35,17.8-73.83,54-76.76,31.53-2.56,59.29,16.1,67.11,45.11,7,26.18-1.06,48.63-23.76,64.44-6.8,4.74-14.23,8.57-22,13.17,9.26,2.82,18.15,5.74,27.18,8.08,1.72.45,4.43-.94,6-2.28a24.89,24.89,0,0,1,16.74-6.06q49,0,98.07,0c16.06,0,24.19,8.17,24.2,24.14q0,47.89,0,95.79c0,15.69-7.77,23.7-23.44,23.76q-49.47.18-99,0c-15.64-.05-23.11-7.64-23.14-23.42-.06-26.45-.07-52.91.19-79.36.07-6.57-2.64-10.37-8.44-13C99.56,148.27,37.49,169.69,27.1,229.05c-.53,3-.47,6.06-.73,9.09-.24,2.83-1.69,4.54-4.64,4.57C16.28,242.76,10.83,242.72,5.09,242.72ZM108.27,118.48c23.34-.08,41.33-17.65,41.15-40.2s-18.24-40.08-41-40.05c-23.18,0-41,17.5-41.16,40.31C67.15,100.71,85.47,118.56,108.27,118.48Zm145,102.92h-62.6V202.81H171.33v58.64H272.44V202.83H253.28Zm19.34-60H171.3v17.74H272.62Z"/></svg>