<svg id="Camada_1" data-name="Camada 1" xmlns="http://www.w3.org/2000/svg" viewBox="0 0 300 300"><path d="M169,294.93c-4.21-1.16-8.54-2-12.61-3.52a359.49,359.49,0,0,1-124-78.72,60.36,60.36,0,0,1-7-7.48c-7.5-10.19-4.11-21.41,7.74-25.51,4.59-1.59,9.44-2.42,14.12-3.75,28.54-8.13,52-24.2,71.83-45.95,6.91-7.57,13.4-15.91,21.6-21.77a79,79,0,0,1,27.42-12.67c9.12-2.1,14.68-6,18.78-14.1,10.18-20,20.53-39.95,31.44-59.56C226.1,7.82,238.68,2.51,252.55,6.08c22.6,5.81,32.14,24.93,22.12,46.26-8.29,17.66-17.82,34.73-26.83,52-2,3.9-4.07,7.78-6.24,11.6-3.1,5.45-3.63,10.76-.84,16.7,6.37,13.55,5.4,27.31.89,41.33A477,477,0,0,1,194,277.43C188.31,286.77,182.28,295.89,169,294.93Zm-74.1-55.44,32.57,19.59c5.68-7.25,10.47-13.35,15.23-19.47,1.49-1.93,2.48-5,4.39-5.68,3.68-1.43,9-3.36,11.49-1.76s4,8.23,2.67,11c-4.07,8.18-9.79,15.53-14.77,23,.92,1.25,1.33,2.28,2.08,2.75a36.77,36.77,0,0,0,5.19,2.56c17.15,7.12,19,7.07,28-8.89,9.79-17.38,18.4-35.43,27.2-53.35,2.05-4.16,2.78-9,4.25-13.93-26-13.6-51-26.76-76.08-39.73-11-5.7-12.34-5.51-21.8,3.18a148.71,148.71,0,0,1-58,32.94c-4.36,1.33-8.58,3.12-15.28,5.59,8.63,7.66,15.2,13.33,21.58,19.21,6,5.54,12.57,7,20.16,3.61,5.46-2.43,11-4.3,17.91,1.42C99.75,226.62,97.65,232.18,94.88,239.49Zm124-61.71c11.91-22.58,10.37-40.88-5.24-51.06a102.68,102.68,0,0,0-31.88-13.61c-16.89-4-34,7.34-39.75,24.56Zm4.69-67.42c12-22.93,23.91-45.1,35.16-67.61,3.67-7.34.86-14-5.5-17.57-6.55-3.66-14.6-1.88-19,5.24-5.09,8.25-9.41,17-13.87,25.63-7,13.63-13.93,27.34-21.45,42.12Z"/></svg>