<svg id="Camada_1" data-name="Camada 1" xmlns="http://www.w3.org/2000/svg" viewBox="0 0 300 300"><defs><style>.cls-1{fill:#fff;}</style></defs><path class="cls-1" d="M6.07,70.43c12.06,5.16,23.43,9.93,34.7,14.88,27.53,12.1,55,24.36,82.54,36.38,5.69,2.49,9,5.52,9,12.54-.28,46.43-.14,92.86-.19,139.29,0,2.38-.61,4.76-1.07,8.13-7.79-3.23-15-6-22-9.15-30.43-13.39-60.79-26.92-91.24-40.25C9.47,228.63,4.94,223.35,5,213.66c.29-45,.11-90,.16-135A79.64,79.64,0,0,1,6.07,70.43Z"/><path class="cls-1" d="M228.76,159.31c29.78-1.45,66.6,24.94,66.24,66.27s-31,68-69.11,68.15c-35.62.14-65.38-31.05-65.62-67.21C160,185.76,195.42,157.26,228.76,159.31Zm-8.31,79.52c-4.44-4.28-8.14-8.08-12.09-11.6-4.42-3.92-8.8-4.37-11.19-1.23-2.92,3.85-1.48,7.33,1.54,10.4,4.48,4.55,8.93,9.14,13.55,13.55,7,6.73,9.12,6.91,15.9.35,10.46-10.12,20.64-20.52,30.9-30.83,1.24-1.25,3.14-2.62,3.26-4.06.24-2.87.35-6.43-1.12-8.61-2.08-3.08-5.65-2.34-8.4,0-2.41,2.09-4.67,4.35-6.93,6.6C237.36,221.9,228.89,230.4,220.45,238.83Z"/><path class="cls-1" d="M271.69,71.34v86.57c-24.42-13-49.11-16.91-74.75-6.13-25.41,10.69-41.31,29.86-50.49,55.6a34.38,34.38,0,0,1-.75-5c0-23,0-46.07-.08-69.1,0-4.61.92-8,5.75-10.1,38.55-16.87,77-33.95,115.51-50.91C268.11,71.74,269.58,71.74,271.69,71.34Z"/><path class="cls-1" d="M260.94,59.17c-3.39,1.89-5.69,3.41-8.18,4.52C217.84,79.2,182.85,94.57,148,110.19c-6.24,2.8-11.66,3.24-18.12.14C114.6,103,99,96.5,81.83,88.94c4.55-2.45,7.38-4.24,10.42-5.59,34.6-15.37,69.28-30.57,103.8-46.11,5.95-2.68,11.09-3.13,17.11-.3,13.77,6.48,27.8,12.38,41.7,18.59A66.92,66.92,0,0,1,260.94,59.17Z"/><path class="cls-1" d="M185.51,27.4Q139,48,92.44,68.64C85.33,71.79,78.25,75.05,71,77.75c-3.16,1.17-7.33,2.41-10.13,1.3C46.47,73.36,32.4,66.92,16.28,59.89c4-2.54,6.09-4.18,8.4-5.21,34.6-15.37,69.26-30.58,103.81-46,6.61-2.95,12.78-3.27,19.39-.28C160.37,14,173,19.4,185.53,24.9,185.52,25.73,185.52,26.56,185.51,27.4Z"/><path class="cls-1" d="M146.45,282V245l1.81-.61,13,30.64Z"/></svg>