<svg id="Camada_1" data-name="Camada 1" xmlns="http://www.w3.org/2000/svg" viewBox="0 0 300 300"><defs><style>.cls-1{fill:#fff;}</style></defs><path class="cls-1" d="M206.92,54.55c-7.21,0-13.58.05-19.94,0-12.78-.13-18.25-5.56-18.49-18.46-.12-6.12,0-12.23,0-19.06-3.63-.41-6.57-1-9.52-1q-56.23-.11-112.48,0a47.61,47.61,0,0,0-9.16.85c-6.7,1.3-10.75,5.93-11.36,12.63-.13,1.38,0,2.79,0,4.19q-.06,100.73-.11,201.46c0,2.51-.08,5.05.13,7.55.62,7.16,5,11.72,12.22,12.59a70.9,70.9,0,0,0,8.38.31c21,0,42,0,63,0,2.78,0,5.76-.12,8.25.85,1.65.64,3.62,3.16,3.55,4.75s-2.25,3.59-4,4.47-3.83.46-5.78.46c-23.22,0-46.44.08-69.67,0-17.35-.07-26.62-9.62-26.62-27.2,0-68.55.33-137.1-.24-205.65C14.84,15.84,27.52,4.85,43.08,5c39.73.4,79.46.14,119.19.1,9.11,0,16.88,2.88,23.3,9.57,7.56,7.86,15.34,15.52,23.13,23.16a29.05,29.05,0,0,1,9.18,21.74c-.06,17.9,0,35.81,0,53.71,0,1.39.29,3.1-.39,4.11-1.13,1.7-2.85,4-4.46,4.11s-4.16-1.76-5-3.41c-1.05-2.09-1-4.85-1.05-7.32-.09-15.67-.05-31.34-.05-47ZM179.81,24.38c-.57,7.63-1.65,13.28,1.51,18.66h17.49Z"/><path class="cls-1" d="M199,216.71h19.29c12.3,0,24.6-.06,36.89,0,10,.07,11.91,1.95,10.86,12-3,29.29-22.92,59.57-61.8,65.41A72.27,72.27,0,0,1,122,235c-7.6-43.48,23.53-78.84,59.41-84.22a80.66,80.66,0,0,1,8.3-1.12c6.84-.29,9.19,1.81,9.25,8.67.13,15.65,0,31.3,0,47Zm-10.71-54.89c-31.16-.89-57.29,29.29-56.59,63.5.62,30.23,27.79,62.78,69.47,58.49,28.1-2.89,55.22-30.69,51.94-55.26-2.86-.13-5.85-.37-8.84-.38-15.09,0-30.17.08-45.25-.07-9.42-.1-10.68-1.5-10.72-10.64,0-10.06,0-20.12,0-30.17Z"/><path class="cls-1" d="M246.44,208.5c-10.07,0-20.14.1-30.21,0-7.18-.09-9.18-1.87-9.24-8.84q-.24-30.21,0-60.42c.06-7.06,2.1-8.92,9.36-8.44,26.93,1.77,47,14.55,60.12,38.15,5.25,9.43,8.5,19.4,8.54,30.32,0,7.93-1,9.14-9.21,9.23C266,208.59,256.23,208.5,246.44,208.5ZM219.2,197.2h54.15c.78-27.43-30.11-57.58-54.8-53.63,0,16.37,0,32.83,0,49.29A33.88,33.88,0,0,0,219.2,197.2Z"/><path class="cls-1" d="M124.51,63.69q-10.19,10-20.4,19.92c-6,5.87-7.81,5.88-13.66-.27-2.27-2.39-4.17-5.12-6.69-8.27-8.51,8.36-15.82,15.63-23.23,22.8-2.7,2.6-5.18,6.69-9.78,3.16-3.15-2.42-2.4-5.69,2.37-10.53C60.78,82.73,68.48,75,76.29,67.37c5.64-5.5,7.52-5.51,13.22.12,2.37,2.33,4.14,5.27,6.17,7.92l19.77-19.2c-.65-.7-1-1.37-1.36-1.41-3.86-.41-7.8-1.32-7.44-6.07s4.35-5.18,8.22-5.15c4.76,0,9.52-.17,14.26.1,5.26.29,6.92,1.9,7.22,7.24s.17,10.62,0,15.93c-.1,3.27-1.21,6.39-5,6.59s-5.34-2.37-5.81-5.85a25.3,25.3,0,0,0-1.22-4l.52.06Z"/><path class="cls-1" d="M150.48,112c0,7.25.13,14.51,0,21.75-.14,5.56-1.47,7-6.86,7.34s-10.59.12-15.89,0c-4.34-.06-6.68-2.12-6.66-6.7q.07-22.59,0-45.18c0-4.48,2-6.86,6.41-7,5.58-.13,11.16-.15,16.73,0,4.41.14,6.4,2.7,6.36,7.1C150.42,97,150.47,104.49,150.48,112ZM132.2,94.33V130.1c1.81.12,3.16.31,4.49.26a9.75,9.75,0,0,0,2.38-.74V94.33Z"/><path class="cls-1" d="M111.85,120.07c0,4.76-.06,9.51,0,14.27.07,4.49-2,6.81-6.53,6.83-5.59,0-11.19.07-16.79-.06-4-.09-6.14-2.24-6.14-6.36q0-15.54,0-31.07c0-4.44,2-6.79,6.57-6.76,5.59,0,11.19,0,16.79,0,4.27,0,6,2.34,6,6.33,0,5.59,0,11.19,0,16.79Zm-11.21,10.06V108l-7,.36c0,7.49,0,14.14,0,20.79,0,.21.33.42.76.94Z"/><path class="cls-1" d="M84.4,170c-10.32,0-20.63,0-30.95,0-1.94,0-4.25.38-5.73-.51a7.71,7.71,0,0,1-3.45-4.95c-.16-1.31,1.69-3.41,3.16-4.21s3.75-.79,5.67-.8q32.62-.07,65.24-.06c.56,0,1.12,0,1.67,0,3.44.07,6.26,1.28,6.36,5.1s-2.46,5.33-6,5.43c-1.68,0-3.35,0-5,0Z"/><path class="cls-1" d="M73.47,126.24c-.13,13.88,2.06,15-14.41,15-17.67.05-15.12-1.29-15.25-16-.12-14,.46-14.49,14.57-14.54C73.46,110.72,73.46,110.72,73.47,126.24ZM55,130.06h7v-7H55Z"/><path class="cls-1" d="M76.08,216.71H94.47c1.39,0,2.79-.06,4.18,0,5.71.38,9.16,2.56,8.72,5.83-.63,4.74-4.69,5.32-8.25,5.36-15.6.19-31.21.06-46.81,0a3.85,3.85,0,0,1-.83-.11c-3.25-.68-7-.83-7.41-5.28-.31-3.22,2.71-5.63,7.76-5.77,8.08-.22,16.16-.06,24.25-.06Z"/><path class="cls-1" d="M63.32,198.66c-4.46,0-8.93.08-13.4,0-3-.08-5.74-1-6-4.56-.24-3.84,2.36-5.69,5.77-5.76,9.21-.22,18.43-.29,27.63,0,2.85.08,5.55,1.71,5.55,5.16,0,3.94-2.73,5.18-6.18,5.22C72.26,198.71,67.79,198.66,63.32,198.66Z"/><path class="cls-1" d="M179.47,83.8c-1.63-.19-3.3-.38-4.95-.59-3.1-.41-5.83-1.92-5.15-5.23A7.78,7.78,0,0,1,174,73a25.42,25.42,0,0,1,9.92-.23c3,.4,5.59,2.54,4.69,5.72-.52,1.89-3.06,3.41-5,4.65C182.54,83.81,180.9,83.6,179.47,83.8Z"/><path class="cls-1" d="M179.15,101.78c1.69.12,3.9-.28,5.5.54s3.55,2.73,3.93,4.47c.29,1.33-1.46,4.39-2.55,4.51a56.63,56.63,0,0,1-13.83,0c-1.2-.17-2.72-3.39-2.72-5.21,0-1.3,2.09-3.1,3.64-3.76S177,101.92,179.15,101.78Z"/><path class="cls-1" d="M179.17,130.8a41.34,41.34,0,0,1,5,0c2.76.35,5.16,1.94,4.47,4.79-.47,2-2.51,4.49-4.34,5-3.08.87-6.58.61-9.86.34-3.06-.26-5.26-2.06-5.06-5.45s2.55-4.67,5.66-4.81c1.38-.06,2.77,0,4.15,0Z"/><path class="cls-1" d="M101.46,198.7c-1.11,0-2.21,0-3.31,0-3.12-.06-5.39-1.31-5.68-4.69s1.86-5.2,4.87-5.51c3.25-.33,6.72-.6,9.78.23a7.39,7.39,0,0,1,4.37,4.9c.62,3.22-1.9,4.86-5.08,5-1.64.09-3.3,0-5,0Z"/></svg>