<svg id="Camada_1" data-name="Camada 1" xmlns="http://www.w3.org/2000/svg" viewBox="0 0 300 300"><defs><style>.cls-1{fill:#8fd458;}.cls-2{fill:#fdfdfc;}</style></defs><path class="cls-1" d="M5,149.43C5.12,69.06,70,5,151.31,5.06,230,5.09,295,70.63,295,149.87c0,80.2-65.45,145.27-146,145.07C69.24,294.73,4.88,229.72,5,149.43Zm145.1-25c-17.12,0-34.23.08-51.34,0-10-.06-15.46,4.79-15.54,14.72q-.28,37.92,0,75.83c.07,9.47,5.49,14.24,14.79,14.26q51.33.13,102.68,0c10.29,0,15.58-5,15.45-15.9-.3-24.11,0-48.23-.14-72.34-.1-13-3.6-16.36-16.9-16.52C182.77,124.28,166.43,124.43,150.1,124.46Zm-46.63-23.68c-.15,13.86.68,14.83,10.15,14.33,10.77-.57,7.91-8.63,8.22-14.68.82-16.38,10.24-26.81,25.55-27.84C164,71.48,173.19,78.91,176.44,96c.59,3,1.61,6.2,1.34,9.2-.72,7.85,2.63,10,10.17,9.91,8.28-.09,8.25-5.2,8.55-10.79,1.5-27.61-18.27-48.77-46-49.28C123.83,54.6,103.76,74.12,103.47,100.78Z"/><path class="cls-2" d="M150.1,124.44c16.33,0,32.67-.16,49,0,13.3.16,16.8,3.53,16.9,16.52.18,24.11-.16,48.23.14,72.34.13,10.91-5.16,15.86-15.45,15.9q-51.34.18-102.68,0c-9.3,0-14.72-4.79-14.79-14.26q-.25-37.9,0-75.83c.08-9.93,5.52-14.78,15.54-14.72C115.87,124.54,133,124.46,150.1,124.44ZM135.59,167c.41,1.47.37,4.69,2,6.46,4.53,5,5.86,10.7,5.42,17.17-.33,4.85,1.28,8.57,6.85,8.71,5.89.15,7-4.27,7-8.69,0-6.38.91-12,5.46-17.12,3.78-4.27,2.58-9.65-.83-13.92-3.92-4.89-9.14-7-15.48-5.19C140.14,156,136.6,159.67,135.59,167Z"/><path class="cls-2" d="M103.47,100.78c.29-26.66,20.36-46.18,47-45.7,27.77.51,47.54,21.67,46,49.28-.3,5.59-.27,10.7-8.55,10.79-7.54.08-10.89-2.06-10.17-9.91.27-3-.75-6.15-1.34-9.2C173.19,78.91,164,71.48,147.39,72.59c-15.31,1-24.73,11.46-25.55,27.84-.31,6,2.55,14.11-8.22,14.68C104.15,115.61,103.32,114.64,103.47,100.78Z"/><path class="cls-1" d="M135.59,167c1-7.3,4.55-10.94,10.33-12.58,6.34-1.8,11.56.3,15.48,5.19,3.41,4.27,4.61,9.65.83,13.92-4.55,5.14-5.47,10.74-5.46,17.12,0,4.42-1.06,8.84-7,8.69-5.57-.14-7.18-3.86-6.85-8.71.44-6.47-.89-12.13-5.42-17.17C136,171.66,136,168.44,135.59,167Z"/></svg>