<svg id="Camada_1" data-name="Camada 1" xmlns="http://www.w3.org/2000/svg" viewBox="0 0 300 300"><defs><style>.cls-1{fill:#fff;}</style></defs><path class="cls-1" d="M150.43,295C72,294.81,5.41,232.63,5,151,4.6,70.25,68.68,5.44,149.22,5,229,4.5,294.87,67.9,295,149.35,295.13,232,228.53,294.72,150.43,295ZM280,149.85c-.71-72.14-56.67-129.14-128.83-129.59C79.45,19.81,20.61,75.71,20.36,149.62c-.24,72.29,56.3,129.8,129.19,130.12C223,280.05,279.24,221.85,280,149.85Z"/><path class="cls-1" d="M149.84,142.71c9.42.61,18.93.66,28.26,2,22,3.08,37.79,20.29,39.25,42.32.65,10,.68,20,.79,30,.06,5.52-1.92,8.49-8.13,10.06-12.36,3.14-24.78,6.55-37.39,8.13A189.56,189.56,0,0,1,95.8,229a51.58,51.58,0,0,1-7.08-2.47,10.71,10.71,0,0,1-6.67-10.63c.16-8.59.29-17.19.7-25.77,1.26-27,19.87-45.51,47-46.64,6.68-.28,13.37,0,20.05,0Z"/><path class="cls-1" d="M185.55,99.8C185.4,119,169.35,135,150.3,135a36,36,0,0,1-35.76-36.43c.18-19.14,16.41-35.31,35.29-35.17A35.86,35.86,0,0,1,185.55,99.8Z"/></svg>